<svg width="46" height="46" viewBox="0 0 46 46" fill="none" xmlns="http://www.w3.org/2000/svg">
<path d="M34.5 23C34.5 19.8375 37.0875 17.25 40.25 17.25C43.4125 17.25 46 19.8375 46 23C46 26.1625 43.4125 28.75 40.25 28.75C37.0875 28.75 34.5 26.1625 34.5 23ZM17.25 23C17.25 19.8375 19.8375 17.25 23 17.25C26.1625 17.25 28.75 19.8375 28.75 23C28.75 26.1625 26.1625 28.75 23 28.75C19.8375 28.75 17.25 26.1625 17.25 23ZM0 23C0 19.8375 2.5875 17.25 5.75 17.25C8.9125 17.25 11.5 19.8375 11.5 23C11.5 26.1625 8.9125 28.75 5.75 28.75C2.5875 28.75 0 26.1625 0 23ZM25.875 40.25C25.875 37.0875 28.4625 34.5 31.625 34.5C34.7875 34.5 37.375 37.0875 37.375 40.25C37.375 43.4125 34.7875 46 31.625 46C28.4625 46 25.875 43.4125 25.875 40.25ZM8.625 40.25C8.625 37.0875 11.2125 34.5 14.375 34.5C17.5375 34.5 20.125 37.0875 20.125 40.25C20.125 43.4125 17.5375 46 14.375 46C11.2125 46 8.625 43.4125 8.625 40.25ZM25.875 5.75C25.875 2.5875 28.4625 0 31.625 0C34.7875 0 37.375 2.5875 37.375 5.75C37.375 8.9125 34.7875 11.5 31.625 11.5C28.4625 11.5 25.875 8.9125 25.875 5.75ZM8.625 5.75C8.625 2.5875 11.2125 0 14.375 0C17.5375 0 20.125 2.5875 20.125 5.75C20.125 8.9125 17.5375 11.5 14.375 11.5C11.2125 11.5 8.625 8.9125 8.625 5.75Z" fill="#333333"/>
</svg>
