<svg width="46" height="46" viewBox="0 0 46 46" fill="none" xmlns="http://www.w3.org/2000/svg">
<g clip-path="url(#clip0_1_749)">
<path d="M24.7187 3.8054L23.5554 2.64209C20.0326 -0.880697 14.2982 -0.880697 10.7754 2.64209L2.64209 10.7754C-0.880697 14.2982 -0.880697 20.0326 2.64209 23.5554L3.8054 24.7187C5.56679 26.4801 7.88027 27.3608 10.197 27.3608C12.5138 27.3608 14.824 26.4801 16.5887 24.7187L24.722 16.5854C28.2415 13.0626 28.2415 7.32819 24.7187 3.8054ZM7.29204 18.9087C7.61409 19.2307 7.61409 19.75 7.29204 20.072C7.13102 20.233 6.9207 20.3119 6.71039 20.3119C6.50007 20.3119 6.28975 20.233 6.12873 20.072C5.04101 18.9876 4.44292 17.5416 4.44292 16.007C4.44292 14.4691 5.04101 13.0264 6.12873 11.9387C6.45078 11.6167 6.96999 11.6167 7.29204 11.9387C7.61409 12.2608 7.61409 12.78 7.29204 13.102C6.5165 13.8776 6.0893 14.9094 6.0893 16.007C6.08601 17.1013 6.51322 18.1332 7.29204 18.9087ZM9.61537 10.7754C9.45435 10.9364 9.24403 11.0153 9.03372 11.0153C8.8234 11.0153 8.61309 10.9364 8.45206 10.7754C8.13002 10.4534 8.13002 9.93413 8.45206 9.61209L11.9354 6.12545C13.3025 4.75839 15.2512 4.17017 17.1506 4.55465C17.5942 4.64666 17.8834 5.07715 17.7914 5.52408C17.6994 5.96771 17.2689 6.24704 16.822 6.16488C15.4714 5.88884 14.0747 6.30947 13.0954 7.28547L9.61537 10.7754ZM21.232 15.4221L15.4221 21.232C14.3409 22.3132 12.8753 22.9146 11.3538 22.9146C11.2453 22.9146 11.1369 22.9113 11.0284 22.9047C10.5749 22.8784 10.2299 22.4906 10.2562 22.0371C10.2825 21.5837 10.6735 21.2353 11.1237 21.2649C12.2936 21.3208 13.4372 20.8936 14.262 20.0687L20.072 14.262C21.6724 12.6584 21.6724 10.0524 20.072 8.45206L18.9087 7.29204C18.5867 6.97328 18.5867 6.45078 18.9087 6.12873C19.2307 5.80669 19.75 5.80669 20.072 6.12873L21.2353 7.29204C23.4732 9.53322 23.4732 13.1809 21.232 15.4221Z" fill="#414042"/>
<path d="M43.3546 29.4146L35.2213 21.2813C31.6985 17.7585 25.9641 17.7585 22.4413 21.2813L21.278 22.4446C17.7552 25.9674 17.7552 31.7018 21.278 35.2246L29.4113 43.3579C31.1727 45.1193 33.4862 46 35.8029 46C38.1164 46 40.4299 45.1193 42.1946 43.3579L43.3579 42.1946C46.8807 38.6718 46.8807 32.9374 43.3546 29.4146ZM25.928 24.7647C28.1691 22.5235 31.8168 22.5235 34.0613 24.7647C34.3833 25.0867 34.3833 25.6059 34.0613 25.928C33.9002 26.089 33.6899 26.1679 33.4796 26.1679C33.2693 26.1679 33.059 26.089 32.898 25.928C31.2976 24.3276 28.6916 24.3276 27.088 25.928C26.7659 26.25 26.2467 26.25 25.928 25.928C25.6059 25.6059 25.6059 25.0867 25.928 24.7647ZM39.8712 38.7079L38.7079 39.8713C37.6235 40.959 36.1776 41.5571 34.6429 41.5571C33.1083 41.5571 31.6624 40.959 30.5746 39.8713L24.7647 34.0613C23.6079 32.9013 22.9967 31.3009 23.0887 29.6677C23.115 29.2142 23.4995 28.8625 23.9563 28.8954C24.4097 28.9217 24.7548 29.3095 24.7285 29.763C24.6628 30.9295 25.0998 32.0764 25.9247 32.9013L31.7347 38.7112C33.2857 40.2623 35.9903 40.2623 37.5446 38.7112L38.7079 37.5479C39.03 37.2259 39.5492 37.2259 39.8712 37.5479C40.1933 37.87 40.19 38.3859 39.8712 38.7079ZM41.4388 35.7898C41.3599 36.1776 41.0181 36.4471 40.6336 36.4471C40.5811 36.4471 40.5252 36.4438 40.4693 36.4306C40.0257 36.3386 39.7365 35.9081 39.8285 35.4612C40.1046 34.104 39.6839 32.7107 38.7079 31.7347L35.2213 28.248C34.8993 27.926 34.8993 27.4068 35.2213 27.0847C35.5433 26.7627 36.0626 26.7627 36.3813 27.0847L39.868 30.5714C41.2383 31.9417 41.8232 33.8937 41.4388 35.7898Z" fill="#414042"/>
</g>
<defs>
<clipPath id="clip0_1_749">
<rect width="46" height="46" fill="white"/>
</clipPath>
</defs>
</svg>
