<svg width="51" height="46" viewBox="0 0 51 46" fill="none" xmlns="http://www.w3.org/2000/svg">
<path d="M25.4663 0C22.26 0 19.4071 1.93684 18.3468 4.84211H2.74451V9.68421H7.66755L0.219871 26.6316C-0.966709 31.4737 2.74451 33.8947 9.0561 33.8947C15.3677 33.8947 19.3061 31.4737 17.8923 26.6316L10.4447 9.68421H18.3215C19.1547 11.7421 20.7957 13.3158 22.9416 14.1147V41.1579H0.219871V46H50.7126V41.1579H27.9909V14.0905C30.1368 13.3158 31.7778 11.7421 32.5857 9.68421H40.4879L33.0402 26.6316C31.8536 31.4737 35.5648 33.8947 41.8764 33.8947C48.188 33.8947 52.1264 31.4737 50.7126 26.6316L43.265 9.68421H48.188V4.84211H32.611C31.5254 1.93684 28.6725 0 25.4663 0ZM25.4663 4.84211C26.1358 4.84211 26.778 5.09718 27.2514 5.55122C27.7249 6.00525 27.9909 6.62105 27.9909 7.26316C27.9909 7.90526 27.7249 8.52106 27.2514 8.9751C26.778 9.42914 26.1358 9.68421 25.4663 9.68421C24.7967 9.68421 24.1545 9.42914 23.6811 8.9751C23.2076 8.52106 22.9416 7.90526 22.9416 7.26316C22.9416 6.62105 23.2076 6.00525 23.6811 5.55122C24.1545 5.09718 24.7967 4.84211 25.4663 4.84211ZM9.0561 17.5526L12.8431 26.6316H5.26915L9.0561 17.5526ZM41.8764 17.5526L45.6634 26.6316H38.0895L41.8764 17.5526Z" fill="#333333"/>
</svg>
