<svg xmlns="http://www.w3.org/2000/svg" width="69" height="66" fill="none" viewBox="0 0 69 66"><path fill="#CE9F1C" d="M38.2 62.9s6.4-1.8 9.7 1.9c0 0-5.7 3.2-9.7-1.9zM42.4 61.1c.7-1.7.4-2.8.4-2.8a7.2 7.2 0 00-4.6 4.4c1-.6 2.6-1.2 4.2-1.6zM45.8 60.9s5.8-3.4 10-.7c0 0-4.8 4.6-10 .7zM49.5 58c.2-1.8-.4-2.8-.4-2.8a7.2 7.2 0 00-3.4 5.5c.9-.9 2.3-1.9 3.8-2.6zM52.7 57s4.7-4.8 9.4-3.3c0 0-3.4 5.7-9.4 3.2zM55.5 53.3c-.3-1.9-1-2.7-1-2.7a7.2 7.2 0 00-2 6.2c.6-1 1.7-2.4 3-3.5zM58.3 51.4s3.3-5.9 8.2-5.6c0 0-1.8 6.4-8.2 5.6zM60 47.1c-.7-1.7-1.7-2.3-1.7-2.3-1.3 2.6-.9 5-.2 6.4.3-1.1 1-2.7 2-4.1zM62.3 44.5S64 38 68.8 37c0 0-.1 6.6-6.5 7.5zM62.9 40c-1.2-1.6-2.3-1.8-2.3-1.8-.6 2.8.4 5 1.5 6.2 0-1.2.2-2.9.8-4.5zM64.4 36.8s0-6.7 4.3-9c0 0 1.6 6.5-4.3 9zM63.8 32.3C62.3 31 61 31.2 61 31.2a7.2 7.2 0 003 5.6c-.3-1.1-.4-2.9-.3-4.5zM64.4 29s-1.8-6.6 1.9-9.9c0 0 3.2 5.8-1.9 9.8zM62.6 24.6c-1.7-.7-2.8-.3-2.8-.3a7.2 7.2 0 004.4 4.6c-.6-1-1.2-2.6-1.6-4.3zM62.4 21.2s-3.4-5.8-.7-10c0 0 4.6 4.9.7 10zM59.6 17.6c-1.9-.3-2.8.3-2.8.3a7.2 7.2 0 005.4 3.4c-.8-.8-1.9-2.2-2.6-3.7zM58.5 14.3S53.7 9.6 55.2 5c0 0 5.7 3.4 3.3 9.4zM54.8 11.5c-1.8.3-2.6 1.1-2.6 1.1 2.1 2 4.5 2.2 6.1 1.9a16 16 0 01-3.5-3zM53 8.7S47 5.4 47.3.4c0 0 6.3 1.9 5.5 8.3zM48.7 7a4.7 4.7 0 00-2.3 1.7c2.6 1.3 5 .9 6.4.2-1.1-.3-2.7-1-4.1-2zM47.3 5.7S40.8 7 37.7 3.2c0 0 6-2.9 9.6 2.5zM30.8 62.9s-6.4-1.8-9.7 1.9c0 0 5.7 3.2 9.7-1.9zM26.6 61.1c-.7-1.7-.4-2.8-.4-2.8 2.7.9 4.1 2.9 4.6 4.4-1-.6-2.6-1.2-4.2-1.6zM23.2 60.9s-5.8-3.4-10-.7c0 0 4.8 4.6 10 .7zM19.5 58c-.2-1.8.4-2.8.4-2.8a7.2 7.2 0 013.4 5.5c-.9-.9-2.3-1.9-3.8-2.6zM16.3 57s-4.7-4.8-9.4-3.3c0 0 3.4 5.7 9.4 3.2zM13.5 53.3c.3-1.9 1-2.7 1-2.7 2 2.2 2.3 4.6 2 6.2-.6-1-1.7-2.4-3-3.5zM10.7 51.4s-3.3-5.9-8.2-5.6c0 0 1.8 6.4 8.2 5.6zM9 47.1c.7-1.7 1.7-2.3 1.7-2.3 1.3 2.6.9 5 .2 6.4-.3-1.1-1-2.7-2-4.1zM6.7 44.5S5 38 .2 37c0 0 .1 6.6 6.5 7.5zM6.1 40c1.2-1.6 2.3-1.8 2.3-1.8.6 2.8-.4 5-1.5 6.2 0-1.2-.2-2.9-.8-4.5zM4.6 36.8s0-6.7-4.3-9c0 0-1.6 6.5 4.3 9zM5.2 32.3C6.7 31 8 31.2 8 31.2a7.2 7.2 0 01-3 5.6c.3-1.1.4-2.9.3-4.5zM4.6 29s1.8-6.6-1.9-9.9c0 0-3.2 5.8 2 9.8zM6.4 24.6c1.7-.7 2.8-.3 2.8-.3a7.2 7.2 0 01-4.4 4.6c.6-1 1.2-2.6 1.6-4.3zM6.6 21.2s3.4-5.8.7-10c0 0-4.6 4.9-.7 10zM9.4 17.6c1.9-.3 2.8.3 2.8.3a7.2 7.2 0 01-5.4 3.4c.8-.8 1.9-2.2 2.6-3.7zM10.5 14.3s4.8-4.7 3.3-9.4c0 0-5.7 3.4-3.3 9.4zM14.2 11.5c1.8.3 2.6 1.1 2.6 1.1a7.1 7.1 0 01-6.1 1.9 16 16 0 003.5-3zM16 8.7S22 5.4 21.7.4c0 0-6.3 1.9-5.5 8.3zM20.3 7c1.7.7 2.3 1.7 2.3 1.7-2.6 1.3-5 .9-6.4.2 1.1-.3 2.7-1 4.1-2zM21.7 5.7s6.5 1.3 9.6-2.5c0 0-6-2.9-9.6 2.5z"/><path fill="#fff" d="M13 25.1h5.6c1.4 0 2.4.4 3.1 1 .6.6.9 1.3.9 2.1 0 1.4-.8 2.2-1.6 2.7 1.4.5 2.2 1.3 2.2 3 0 2.2-1.8 3.3-4.5 3.3H13V25.1zm5 5c1.2 0 2-.5 2-1.4 0-.8-.7-1.3-1.8-1.3h-2.6V30H18zm.7 4.8c1.2 0 1.9-.4 1.9-1.3s-.6-1.4-2-1.4h-3V35h3.1zM25.4 25.1h9.1v2.4h-6.4v2.4h5.6v2.4h-5.6V35h6.5v2.3h-9.2V25.1zM36.1 35.5l1.6-2c1.1 1 2.2 1.6 3.6 1.6 1.1 0 1.8-.5 1.8-1.2s-.5-1-2.5-1.6c-2.4-.6-4-1.3-4-3.7 0-2.2 1.8-3.7 4.3-3.7a7 7 0 014.4 1.6l-1.3 2c-1.1-.8-2.2-1.2-3.2-1.2s-1.5.5-1.5 1c0 .9.5 1.1 2.6 1.7 2.4.6 3.8 1.5 3.8 3.6 0 2.5-1.8 3.8-4.4 3.8-1.9 0-3.7-.6-5.2-2zM50.6 27.6h-3.7V25h10v2.5h-3.7v9.6h-2.6v-9.6zM20.2 46.3v-.2-.7.2c.2.5.6.7 1 .7.6 0 .8-.5.8-.8 0-.5-.1-.7-.6-1.1L21 44c-.7-.5-.8-.9-.8-1.3 0-.6.5-1 1.2-1h.8V42.6l-.1-.4s-.2-.3-.8-.3c-.4 0-.7.3-.7.7 0 .4.2.6.7 1l.2.2c.7.6.9 1 .9 1.4 0 .3-.1.7-.5 1-.3.2-.6.3-1 .3a2 2 0 01-.8-.2zM25.3 43.6v-1.4c0-.2 0-.3-.3-.3h-.2v-.1H27.4v.7h-.1l-.1-.2c0-.1-.1-.2-.4-.3a21.5 21.5 0 00-.9 0v1.8h1.3v-.1h.1v.7l-.1.2v-.3l-.4-.2a16.7 16.7 0 00-1 0v1.5c.1.5.2.6.8.6h.6l.3-.5v-.1.7l-.4.1h-1.5H25l.2-.1.2-.3v-2.4zM30.7 44.6c0 1 0 1.3.2 1.4 0 .1.2.2.7.2.3 0 .6 0 .7-.2l.2-.4v.7l-.4.1h-1.6-.6-.1l.2-.1.2-.3v-2.4-1.4c0-.2 0-.3-.3-.3h-.2v-.1h1.5l-.2.1c-.2 0-.3.1-.3.3v2.4zM35.5 44.6c0 1 0 1.3.2 1.4 0 .1.2.2.7.2.3 0 .6 0 .7-.2l.2-.4v.7l-.4.1h-1.6-.3-.3-.1l.2-.1.2-.3v-2.4-1.4c0-.2 0-.3-.2-.3h-.3v-.1H36l-.2.1c-.2 0-.2.1-.3.3v2.4zM39.8 43.6v-1.4c0-.2 0-.3-.2-.3h-.2-.1l.1-.1h2.4v.7h-.1v-.2l-.5-.3a21.5 21.5 0 00-.9 0v1.8h1.3l.1-.1V44.6h-.1v-.3s-.1-.2-.4-.2a16.7 16.7 0 00-.9 0v1.5c0 .5.1.6.7.6h.6l.3-.5v-.1.7l-.3.1H40h-.3-.3-.1l.2-.1.2-.3v-2.4zM44.8 43.6v-1.4c0-.2-.1-.3-.3-.3h-.2v-.1h1.4c.4 0 .8 0 1.1.3.2 0 .4.4.4.8s-.1.9-.7 1.4l1.3 1.6c.3.3.6.4.7.4H48.8l-.1.1h-.5l-.6-.1c-.3-.2-.5-.4-.8-1l-.7-.8h-.8V46c0 .1 0 .3.2.3h.3v.1H45h-.6l.1-.1c.2 0 .2-.2.2-.3v-2.4zm.4.5l.7.2c.2 0 .3 0 .5-.2.2-.1.3-.4.3-.9 0-.8-.4-1.2-1-1.2a2 2 0 00-.4 0v2z"/><path fill="#CE9F1C" d="M34.5 11.2l1 3.3H39l-2.7 2 1 3.2-2.7-2-2.7 2 1-3.2-2.7-2h3.4l1-3.3zM27 13.5l.6 2h2L28 16.7l.7 2-1.7-1.3-1.6 1.2.6-2-1.7-1.1h2l.7-2zM20.8 14.2l.6 2h2l-1.6 1.1.7 2-1.7-1.2-1.6 1.2.6-2-1.7-1.2h2l.7-2zM42 13.5l-.6 2h-2l1.6 1.2-.7 2 1.7-1.3 1.6 1.2-.6-2 1.7-1.1h-2l-.7-2zM48.2 14.2l-.6 2h-2l1.6 1.1-.7 2 1.7-1.2 1.6 1.2-.6-2 1.7-1.2h-2l-.7-2zM39.7 56.4H29.3c-1.2 0-2.2-1-2.2-2.3V54c0-1.3 1-2.3 2.2-2.3h10.4c1.2 0 2.2 1 2.2 2.3v.2c0 1.3-1 2.3-2.2 2.3z"/><path fill="#fff" d="M30.5 54.8l.8-.7c.3-.2.4-.4.4-.6 0-.2-.1-.3-.3-.3-.2 0-.4 0-.6.3l-.2-.2c.2-.3.4-.5.8-.5s.7.3.7.7c0 .3-.2.5-.6.8l-.4.4h1v.4h-1.6v-.3zM32.7 54c0-.7.4-1.2 1-1.2.5 0 1 .5 1 1.2 0 .6-.5 1.1-1 1.1-.6 0-1-.5-1-1.1zm1.5 0c0-.5-.2-.8-.6-.8-.3 0-.5.3-.5.8 0 .4.2.8.6.8.3 0 .5-.4.5-.8zM35 54.8l.7-.7c.3-.2.4-.4.4-.6 0-.2-.2-.3-.4-.3s-.3 0-.5.3l-.3-.2c.3-.3.5-.5.9-.5s.7.3.7.7c0 .3-.2.5-.6.8l-.4.4h1v.4H35v-.3zM37 54c0-.7.4-1.2 1-1.2s1 .5 1 1.2c0 .6-.4 1.1-1 1.1s-1-.5-1-1.1zm1.6 0c0-.5-.2-.8-.6-.8-.3 0-.5.3-.5.8 0 .4.2.8.5.8.4 0 .6-.4.6-.8z"/></svg>