<svg width="42" height="53" viewBox="0 0 42 53" fill="none" xmlns="http://www.w3.org/2000/svg">
<path d="M39.5941 32.1928C39.5941 43.156 30.9312 52.0008 20.297 52.0008C9.66287 52.0008 1 43.156 1 32.1928C1 21.2295 9.66287 12.3848 20.297 12.3848C30.9312 12.3848 39.5941 21.2295 39.5941 32.1928Z" fill="#3D3D3D" stroke="white" stroke-width="2"/>
<path d="M6.495 31.376L11.7722 25.664L19.0792 34.232C22.1914 27.432 23.5445 20.768 41 2V19.136C36.6699 22.264 26.3861 31.9472 19.891 45.656C9.17421 34.8848 6.495 31.648 6.495 31.376Z" fill="#F1BB1A"/>
<path d="M41 2C23.5445 20.768 22.1914 27.432 19.0792 34.232L11.7722 25.664L6.495 31.376C6.495 31.648 9.1742 34.8848 19.891 45.656C26.3861 31.9472 36.6699 22.264 41 19.136M41 2C41 15.056 41 18.864 41 19.136M41 2V19.136" stroke="#F1BB1A"/>
</svg>
