<svg xmlns="http://www.w3.org/2000/svg" width="72" height="73" fill="none" viewBox="0 0 72 73"><path fill="url(#paint0_linear)" d="M71.22 43.65l-3.38 1.56 2.08 3.1-3.56 1.1 1.65 3.35-3.66.6 1.19 3.55-3.72.1.71 3.68-3.7-.4.23 3.74-3.61-.88-.28 3.73-3.46-1.36-.77 3.66-3.25-1.81-1.25 3.52-2.98-2.23-1.7 3.32-2.66-2.6-2.13 3.06-2.3-2.95-2.5 2.76-1.89-3.23-2.85 2.4-1.44-3.46-3.15 1.99-.96-3.61-3.38 1.54-.48-3.7-3.56 1.07.02-3.74-3.67.6.5-3.71-3.7.1 1-3.61-3.7-.4 1.46-3.44-3.6-.9 1.9-3.21-3.45-1.37 2.31-2.93L.3 40.82l2.68-2.6L0 35.99l3-2.2-2.65-2.62 3.27-1.79-2.28-2.95 3.47-1.33-1.87-3.24L6.56 21l-1.42-3.45 3.7-.36-.95-3.62 3.7.14-.46-3.7 3.66.63.03-3.74 3.55 1.12.52-3.7 3.37 1.6 1-3.6 3.13 2.02L27.87.9l2.82 2.42 1.92-3.2 2.48 2.79L37.42 0l2.09 3.1L42.2.5l1.65 3.35 3.01-2.2 1.2 3.54 3.28-1.77.72 3.67 3.48-1.31.23 3.73 3.62-.84-.26 3.73 3.7-.34-.76 3.66 3.71.16-1.23 3.53 3.66.65-1.7 3.33 3.55 1.14-2.12 3.07 3.36 1.6-2.5 2.77 3.1 2.04-2.84 2.4 2.82 2.44-3.14 2 2.47 2.8z"/><path fill="#000" d="M64.45 36.22a28.59 28.59 0 01-28.5 28.68A28.59 28.59 0 017.48 36.22 28.59 28.59 0 0135.96 7.53a28.59 28.59 0 0128.49 28.69zm-28.5-18.69A18.62 18.62 0 0017.4 36.22c0 10.32 8.3 18.69 18.56 18.69a18.62 18.62 0 0018.56-18.7c0-10.31-8.31-18.68-18.56-18.68z"/><path fill="url(#paint1_linear)" d="M35.96 7.16A28.96 28.96 0 007.09 36.22a28.96 28.96 0 0028.87 29.06 28.96 28.96 0 0028.86-29.06A28.96 28.96 0 0035.96 7.16zm0 57.74A28.59 28.59 0 017.47 36.22 28.59 28.59 0 0135.96 7.53a28.59 28.59 0 0128.49 28.69 28.59 28.59 0 01-28.5 28.68z"/><path fill="url(#paint2_linear)" d="M35.96 54.9a18.62 18.62 0 0018.56-18.68c0-10.32-8.31-18.69-18.56-18.69A18.62 18.62 0 0017.4 36.22c0 10.32 8.3 18.69 18.56 18.69z"/><path fill="url(#paint3_linear)" d="M35.96 5.17c-17.03 0-30.84 13.9-30.84 31.05s13.8 31.05 30.84 31.05c17.03 0 30.84-13.9 30.84-31.05S52.99 5.17 35.96 5.17zm0 60.11A28.96 28.96 0 017.09 36.22 28.96 28.96 0 0135.96 7.16a28.96 28.96 0 0128.86 29.06 28.96 28.96 0 01-28.86 29.06z"/><path fill="url(#paint4_linear)" d="M35.96 4.75C18.7 4.75 4.7 18.84 4.7 36.22S18.7 67.69 35.96 67.69c17.26 0 31.25-14.1 31.25-31.47 0-17.38-14-31.47-31.25-31.47zm0 62.52c-17.03 0-30.84-13.9-30.84-31.05S18.92 5.17 35.96 5.17c17.03 0 30.84 13.9 30.84 31.05S52.99 67.27 35.96 67.27z"/><path fill="#3D3D3D" d="M35.96 8.3c-15.2 0-27.58 12.46-27.58 27.77 0 1.59.13 3.15.4 4.66a63.35 63.35 0 017.77-3.16 19.56 19.56 0 0119.41-21.1c10.74 0 19.47 8.8 19.47 19.6 0 .22-.09 1.01-.1 1.22 3.02.76 5.65 1.55 7.9 2.36.12-1.01.31-2.54.31-3.58 0-15.31-12.37-27.77-27.58-27.77z"/><path fill="#D27520" d="M54.5 36.22v.89a18.62 18.62 0 00-18.54-17.8c-9.95 0-18.07 8.06-18.53 17.96a18.64 18.64 0 0118.53-19.73A18.61 18.61 0 0154.5 36.22z"/><path fill="#F5E366" d="M54.5 37.1c0 .02-37.07.23-37.07.17.46-10.02 8.46-18.15 18.53-18.15 10.06 0 18.07 7.97 18.54 17.99z"/><path fill="url(#paint5_linear)" d="M54.5 37.1a18.65 18.65 0 01-18.54 17.8 18.63 18.63 0 01-18.53-17.63c7.7-2.26 25.17-3.44 37.07-.16z"/><path fill="url(#paint6_linear)" d="M60.82 36.91l1.88-1.41-3.12 1.01 1.24.4z"/><path fill="url(#paint7_linear)" d="M62.7 35.5l-2.35-.06-.77 1.07 3.12-1.01z"/><path fill="url(#paint8_linear)" d="M60.36 35.45l-.74-2.23-.04 3.29.78-1.06z"/><path fill="url(#paint9_linear)" d="M59.62 33.22l-.8 2.21.76 1.08.04-3.3z"/><path fill="url(#paint10_linear)" d="M58.84 35.43l-2.34-.02 3.08 1.1-.74-1.08z"/><path fill="url(#paint11_linear)" d="M56.5 35.4l1.82 1.49 1.26-.38-3.08-1.1z"/><path fill="url(#paint12_linear)" d="M58.33 36.87l-.78 2.22 2.03-2.58-1.25.36z"/><path fill="url(#paint13_linear)" d="M57.55 39.1l1.98-1.27.05-1.32-2.03 2.58z"/><path fill="url(#paint14_linear)" d="M59.53 37.83l1.9 1.4-1.85-2.72-.05 1.32z"/><path fill="url(#paint15_linear)" d="M61.44 39.22l-.62-2.3-1.24-.41 1.86 2.71z"/><path fill="url(#paint16_linear)" d="M11.15 36.91L9.28 35.5l3.11 1.01-1.24.4z"/><path fill="url(#paint17_linear)" d="M9.28 35.5l2.34-.06.77 1.07-3.1-1.01z"/><path fill="url(#paint18_linear)" d="M11.62 35.45l.74-2.23.03 3.29-.77-1.06z"/><path fill="url(#paint19_linear)" d="M12.36 33.22l.8 2.21-.77 1.08-.03-3.3z"/><path fill="url(#paint20_linear)" d="M13.14 35.43l2.34-.02-3.09 1.1.75-1.08z"/><path fill="url(#paint21_linear)" d="M15.48 35.4l-1.83 1.49-1.26-.38 3.09-1.1z"/><path fill="url(#paint22_linear)" d="M13.65 36.87l.77 2.22-2.03-2.58 1.26.36z"/><path fill="url(#paint23_linear)" d="M14.42 39.1l-1.97-1.27-.06-1.32 2.03 2.58z"/><path fill="url(#paint24_linear)" d="M12.45 37.83l-1.91 1.4 1.85-2.72.06 1.32z"/><path fill="url(#paint25_linear)" d="M10.54 39.22l.61-2.3 1.24-.41-1.85 2.71z"/><path fill="url(#paint26_linear)" d="M24.87 33.1h-1.91v-2.5c1.01.02 2.26-.52 2.48-2.46h1.42v15.98h-1.99V33.1zm4.22-.7c0-3.26 1-4.6 2.79-4.6 2.24 0 2.8 1.89 2.76 5.54v5.88c0 3.57-.65 5.29-2.79 5.29-1.75 0-2.76-1.35-2.76-4.5v-7.6zm3.46 0c0-.23.07-1.89-.67-1.89-.68 0-.7.98-.7 1.9v7.33c0 .96 0 2.05.7 2.05.7-.04.67-1.48.67-2.05v-7.33zm2.78 0c0-3.26 1-4.6 2.79-4.6 2.25 0 2.8 1.89 2.76 5.54v5.88c0 3.57-.65 5.29-2.79 5.29-1.74 0-2.76-1.35-2.76-4.5v-7.6zm3.46 0c0-.23.08-1.89-.67-1.89-.67 0-.7.98-.7 1.9v7.33c0 .96 0 2.05.7 2.05.71-.04.67-1.48.67-2.05v-7.33zm2.74-.25c0-2.38.5-4.05 2-4.05 1.48 0 2 1.3 2 4.05 0 2.28-.27 4.07-2 4.07-1.59 0-2-1.55-2-4.07zm2.48-.03c0-.67.13-2.04-.48-2.04-.6-.09-.49 1.37-.49 2.04 0 .98-.11 2.12.49 2.12.56 0 .48-1.44.48-2.12zm.87 12.39h-1.05l4.22-16.72h1.02l-4.2 16.72zm6.46-4.38c0 2.29-.26 4.08-2 4.08-1.58 0-2-1.55-2-4.08 0-2.37.5-4.04 2-4.04 1.57 0 2 1.5 2 4.04zm-2.48-.04c0 .98-.11 2.13.49 2.13.56 0 .48-1.45.48-2.13 0-.67.13-2.02-.48-2.02-.6-.09-.5 1.35-.5 2.02z"/><path fill="#000" d="M24.87 32.68h-1.91v-2.5c1.01.02 2.26-.52 2.48-2.46h1.42V43.7h-1.99V32.68zm4.22-.7c0-3.26 1-4.6 2.79-4.6 2.24 0 2.8 1.88 2.76 5.54v5.88c0 3.57-.65 5.29-2.79 5.29-1.75 0-2.76-1.35-2.76-4.5v-7.6zm3.46 0c0-.23.07-1.89-.67-1.89-.68 0-.7.98-.7 1.9v7.33c0 .96 0 2.05.7 2.05.7-.05.67-1.48.67-2.05V32zm2.78 0c0-3.26 1-4.6 2.79-4.6 2.25 0 2.8 1.88 2.76 5.54v5.88c0 3.57-.65 5.29-2.79 5.29-1.74 0-2.76-1.35-2.76-4.5v-7.6zm3.46 0c0-.23.08-1.89-.67-1.89-.67 0-.7.98-.7 1.9v7.33c0 .96 0 2.05.7 2.05.71-.05.67-1.48.67-2.05V32zm2.74-.26c0-2.37.5-4.04 2-4.04 1.48 0 2 1.3 2 4.04 0 2.29-.27 4.08-2 4.08-1.59 0-2-1.55-2-4.08zM44 31.7c0-.67.13-2.04-.48-2.04-.6-.09-.49 1.37-.49 2.04 0 .98-.11 2.11.49 2.11.56 0 .48-1.43.48-2.1zm.87 12.39h-1.05l4.22-16.72h1.02l-4.2 16.72zm6.46-4.38c0 2.29-.26 4.07-2 4.07-1.58 0-2-1.54-2-4.07 0-2.37.5-4.05 2-4.05 1.57 0 2 1.5 2 4.05zm-2.48-.04c0 .98-.11 2.13.49 2.13.56 0 .48-1.46.48-2.13 0-.68.13-2.02-.48-2.02-.6-.1-.5 1.34-.5 2.02z"/><path fill="#FAF5C9" d="M13.64 23.16l.8.4c-.5.43-.84.8-1 1.13a1 1 0 00-.12.5c0 .13.06.23.16.28.08.04.17.04.28 0 .11-.05.3-.2.56-.45.26-.26.49-.45.67-.59.19-.13.4-.23.64-.27.24-.05.5-.01.76.12.38.19.62.49.7.89.09.4.01.84-.22 1.32a3.4 3.4 0 01-1.12 1.3l-.9-.43c.33-.19.58-.37.77-.54.19-.17.34-.38.46-.62.2-.4.17-.67-.09-.8-.08-.04-.19-.04-.3 0-.12.05-.3.2-.57.45-.26.26-.48.46-.66.59-.19.14-.4.23-.64.27-.23.05-.5 0-.77-.13a1.15 1.15 0 01-.64-.86c-.08-.39 0-.83.23-1.31.21-.44.55-.86 1-1.25zM15.97 19.31l4.87 1.26-.77.97-.94-.27-1.28 1.63.5.83-.75.96-2.45-4.33.82-1.05zm2.32 1.73l-1.86-.53.98 1.65.88-1.12zM20.82 14.62l.55.65-1.26 1.08 2.44 2.87-.87.75-2.44-2.87-1.27 1.1-.54-.65 3.4-2.93zM23.12 13.24l2.37 3.97-.98.6-2.37-3.97.98-.6zM27.7 11.44l.35.84a3.81 3.81 0 00-1.5.17 1 1 0 00-.42.29c-.09.1-.1.22-.06.32.03.08.1.14.21.18.11.04.35.06.71.04.36-.01.66 0 .89.02.23.02.45.1.66.22.21.12.37.32.49.6.16.4.14.77-.07 1.13-.2.36-.55.64-1.04.84-.52.22-1.09.3-1.7.22l-.37-.92c.36.08.67.11.92.1.26 0 .5-.05.75-.15.42-.17.57-.39.46-.65-.03-.09-.1-.16-.22-.2a2.13 2.13 0 00-.72-.04c-.37.01-.66.01-.89-.01-.22-.02-.44-.1-.65-.22-.2-.13-.37-.33-.49-.62-.15-.36-.12-.72.08-1.07.2-.35.55-.62 1.04-.83a3.9 3.9 0 011.58-.26zM32.4 10.02l.17.83-1.98.4.2 1.02 1.99-.4.16.82-1.98.4.38 1.87-1.12.22-.91-4.53 3.1-.63zM36.4 9.82l2.12 4.6-1.23.01-.4-.9-2.05.03-.33.92-1.2.02 1.77-4.66 1.33-.02zm.15 2.9l-.77-1.78-.65 1.8 1.42-.02zM43.1 14.09l-.22.98c-.63.17-1.25.2-1.86.05a2.74 2.74 0 01-1.75-1.1 2.22 2.22 0 01-.34-1.79 2.2 2.2 0 011.11-1.48c.6-.34 1.3-.42 2.1-.24.64.15 1.15.4 1.53.77l-.22 1c-.47-.43-.95-.7-1.44-.8-.48-.12-.9-.08-1.25.11-.36.2-.59.49-.68.88-.09.4-.01.77.23 1.1.24.32.6.54 1.06.65.23.05.46.07.68.06.23-.02.58-.08 1.05-.2zM49.25 13.41l-.37.76-1.5-.73-1.63 3.4-1.03-.5 1.63-3.4-1.5-.73.37-.76 4.03 1.96zM51.42 14.98l-2.66 3.77-.94-.67 2.67-3.77.93.67zM54.69 17.82c.54.57.8 1.2.8 1.87 0 .68-.23 1.24-.68 1.68a2.2 2.2 0 01-1.7.62 2.63 2.63 0 01-1.82-.89 2.67 2.67 0 01-.81-1.86 2.23 2.23 0 012.38-2.31c.68.02 1.29.32 1.83.89zm-2.71 2.62c.3.31.63.48 1 .5.37 0 .7-.13 1-.43.31-.29.47-.62.47-1 0-.37-.15-.7-.45-1.02-.3-.32-.64-.49-1-.5-.38-.02-.71.12-1.02.42-.3.29-.45.62-.45 1 0 .37.14.71.45 1.03zM59.76 25.36l-4.02 2.23-.47-.85 1.35-3.67-2.58 1.44-.55-1.01 4.02-2.24.5.93-1.27 3.53 2.46-1.37.56 1zM18.81 49.76l-.82.55a3.89 3.89 0 00-.57-1.65c-.3-.44-.63-.7-1-.8-.39-.1-.75-.03-1.1.2-.32.22-.51.52-.56.9-.05.37.06.75.31 1.14.14.2.32.39.55.54l.43-.3-.35-.54.69-.45.97 1.49-1.54 1.01c-.24-.05-.51-.2-.8-.44-.3-.24-.55-.51-.74-.81a2.89 2.89 0 01-.52-1.99c.09-.66.4-1.17.97-1.54a2.08 2.08 0 011.8-.29 2.9 2.9 0 011.62 1.29c.36.55.58 1.12.66 1.7zM22.13 52.61l.82.77-1.73 1.89c-.45.48-.93.72-1.45.7-.51-.01-1.03-.27-1.56-.76s-.81-1-.87-1.52c-.06-.52.14-1.02.57-1.5l1.74-1.88.82.76-1.75 1.91a.99.99 0 00-.29.77c.02.28.16.53.4.76.26.24.52.35.8.35.29 0 .55-.13.8-.4l1.7-1.85zM25.72 55.04l-.5 4.93-1.04-.6.12-.97-1.75-1-.73.6-1.03-.6 3.8-3.01 1.13.65zm-1.32 2.51l.24-1.89-1.44 1.2 1.2.7zM27.91 56.14l1.92.6c.42.13.72.35.9.68.19.32.23.66.12 1-.14.48-.5.75-1.06.83.18.16.3.5.37.99l.18 1.4-1.17-.37a23.5 23.5 0 01-.12-.93 2.64 2.64 0 00-.2-.9.61.61 0 00-.35-.3l-.3-.1-.55 1.76-1.07-.34 1.33-4.32zm.83 1.13l-.3.98.56.18c.18.05.34.05.47 0a.46.46 0 00.27-.32c.1-.32-.05-.55-.46-.68l-.54-.16zM34.75 57.6l1.62 4.67-1.2-.1-.3-.92-2-.16-.4.86-1.19-.1 2.17-4.36 1.3.1zm-.14 2.84l-.58-1.81-.8 1.7 1.38.1zM41.65 56.99l.7 4.46-.93.16-2.9-2.47.45 2.86-1.1.18-.71-4.47 1.01-.16 2.8 2.35-.43-2.74 1.1-.17zM46.26 55.12l.31.76-1.5.63 1.41 3.42-1.03.43-1.41-3.41-1.5.63-.32-.77 4.04-1.7zM51.62 55.91l.47.69-2.74 1.88-2.54-3.74 2.7-1.86.47.69-1.78 1.22.53.78 1.7-1.16.46.68-1.7 1.17.62.9 1.81-1.25zM55.14 52.5l.59.6-2.33 2.37-3.2-3.18 2.3-2.35.58.59-1.5 1.54.67.66 1.44-1.46.58.58-1.44 1.47.77.76 1.54-1.57zM53.06 49.31l1.06-1.69c.4-.65.9-1.05 1.5-1.2.6-.16 1.17-.06 1.73.3.6.38.93.86 1.03 1.46.1.6-.08 1.26-.53 1.97l-.99 1.58-3.8-2.42zm1.3-.5l2.4 1.52.4-.62c.25-.4.33-.78.24-1.14a1.43 1.43 0 00-.67-.87 1.4 1.4 0 00-1.08-.24c-.35.08-.66.32-.91.73l-.38.61z"/><defs><linearGradient id="paint0_linear" x1="86.66" x2="-47.12" y1="46.91" y2="19.04" gradientUnits="userSpaceOnUse"><stop stop-color="#F5E366"/><stop offset=".06" stop-color="#F1D65E"/><stop offset=".16" stop-color="#E6B448"/><stop offset=".29" stop-color="#D57E26"/><stop offset=".32" stop-color="#D27520"/><stop offset=".7" stop-color="#F5E366"/><stop offset=".76" stop-color="#F1D65E"/><stop offset=".85" stop-color="#E6B448"/><stop offset=".98" stop-color="#D57E26"/><stop offset="1" stop-color="#D27520"/></linearGradient><linearGradient id="paint1_linear" x1="50.25" x2="21.08" y1="61.14" y2="10.97" gradientUnits="userSpaceOnUse"><stop stop-color="#F5E366"/><stop offset=".06" stop-color="#F1D65E"/><stop offset=".16" stop-color="#E6B448"/><stop offset=".29" stop-color="#D57E26"/><stop offset=".32" stop-color="#D27520"/><stop offset=".7" stop-color="#F5E366"/><stop offset=".76" stop-color="#F1D65E"/><stop offset=".85" stop-color="#E6B448"/><stop offset=".98" stop-color="#D57E26"/><stop offset="1" stop-color="#D27520"/></linearGradient><linearGradient id="paint2_linear" x1="45.15" x2="26.39" y1="52.24" y2="19.98" gradientUnits="userSpaceOnUse"><stop stop-color="#F5E366"/><stop offset=".06" stop-color="#F1D65E"/><stop offset=".16" stop-color="#E6B448"/><stop offset=".29" stop-color="#D57E26"/><stop offset=".32" stop-color="#D27520"/><stop offset=".7" stop-color="#F5E366"/><stop offset=".76" stop-color="#F1D65E"/><stop offset=".85" stop-color="#E6B448"/><stop offset=".98" stop-color="#D57E26"/><stop offset="1" stop-color="#D27520"/></linearGradient><linearGradient id="paint3_linear" x1="35.96" x2="35.96" y1="5.48" y2="67.58" gradientUnits="userSpaceOnUse"><stop stop-color="#F5E366"/><stop offset=".06" stop-color="#F1D65E"/><stop offset=".16" stop-color="#E6B448"/><stop offset=".29" stop-color="#D57E26"/><stop offset=".32" stop-color="#D27520"/><stop offset=".7" stop-color="#F5E366"/><stop offset=".76" stop-color="#F1D65E"/><stop offset=".85" stop-color="#E6B448"/><stop offset=".98" stop-color="#D57E26"/><stop offset="1" stop-color="#D27520"/></linearGradient><linearGradient id="paint4_linear" x1="14.08" x2="58.58" y1="14.19" y2="58.39" gradientUnits="userSpaceOnUse"><stop stop-color="#F5E366"/><stop offset=".06" stop-color="#F1D65E"/><stop offset=".16" stop-color="#E6B448"/><stop offset=".29" stop-color="#D57E26"/><stop offset=".32" stop-color="#D27520"/><stop offset=".7" stop-color="#F5E366"/><stop offset=".76" stop-color="#F1D65E"/><stop offset=".85" stop-color="#E6B448"/><stop offset=".98" stop-color="#D57E26"/><stop offset="1" stop-color="#D27520"/></linearGradient><linearGradient id="paint5_linear" x1="35.96" x2="35.96" y1="54.9" y2="35.08" gradientUnits="userSpaceOnUse"><stop stop-color="#F5E366"/><stop offset=".18" stop-color="#F1D65E"/><stop offset=".5" stop-color="#E6B448"/><stop offset=".93" stop-color="#D57E26"/><stop offset="1" stop-color="#D27520"/></linearGradient><linearGradient id="paint6_linear" x1="59.58" x2="62.69" y1="36.2" y2="36.21" gradientUnits="userSpaceOnUse"><stop stop-color="#D27520"/><stop offset=".07" stop-color="#D57E26"/><stop offset=".5" stop-color="#E6B448"/><stop offset=".82" stop-color="#F1D65E"/><stop offset="1" stop-color="#F5E366"/></linearGradient><linearGradient id="paint7_linear" x1="59.58" x2="62.69" y1="35.97" y2="35.98" gradientUnits="userSpaceOnUse"><stop stop-color="#D27520"/><stop offset=".05" stop-color="#DA8D2F"/><stop offset=".12" stop-color="#E2A840"/><stop offset=".2" stop-color="#E9BE4E"/><stop offset=".29" stop-color="#EECF59"/><stop offset=".4" stop-color="#F2DA60"/><stop offset=".56" stop-color="#F4E165"/><stop offset="1" stop-color="#F5E366"/></linearGradient><linearGradient id="paint8_linear" x1="59.29" x2="60.3" y1="36.41" y2="33.45" gradientUnits="userSpaceOnUse"><stop stop-color="#D27520"/><stop offset=".07" stop-color="#D57E26"/><stop offset=".5" stop-color="#E6B448"/><stop offset=".82" stop-color="#F1D65E"/><stop offset="1" stop-color="#F5E366"/></linearGradient><linearGradient id="paint9_linear" x1="59.08" x2="60.09" y1="36.34" y2="33.38" gradientUnits="userSpaceOnUse"><stop stop-color="#D27520"/><stop offset=".05" stop-color="#DA8D2F"/><stop offset=".12" stop-color="#E2A840"/><stop offset=".2" stop-color="#E9BE4E"/><stop offset=".29" stop-color="#EECF59"/><stop offset=".4" stop-color="#F2DA60"/><stop offset=".56" stop-color="#F4E165"/><stop offset="1" stop-color="#F5E366"/></linearGradient><linearGradient id="paint10_linear" x1="59.39" x2="56.92" y1="36.76" y2="34.86" gradientUnits="userSpaceOnUse"><stop stop-color="#D27520"/><stop offset=".07" stop-color="#D57E26"/><stop offset=".5" stop-color="#E6B448"/><stop offset=".82" stop-color="#F1D65E"/><stop offset="1" stop-color="#F5E366"/></linearGradient><linearGradient id="paint11_linear" x1="59.26" x2="56.78" y1="36.93" y2="35.04" gradientUnits="userSpaceOnUse"><stop stop-color="#D27520"/><stop offset=".05" stop-color="#DA8D2F"/><stop offset=".12" stop-color="#E2A840"/><stop offset=".2" stop-color="#E9BE4E"/><stop offset=".29" stop-color="#EECF59"/><stop offset=".4" stop-color="#F2DA60"/><stop offset=".56" stop-color="#F4E165"/><stop offset="1" stop-color="#F5E366"/></linearGradient><linearGradient id="paint12_linear" x1="59.75" x2="57.15" y1="36.77" y2="38.48" gradientUnits="userSpaceOnUse"><stop stop-color="#D27520"/><stop offset=".07" stop-color="#D57E26"/><stop offset=".5" stop-color="#E6B448"/><stop offset=".82" stop-color="#F1D65E"/><stop offset="1" stop-color="#F5E366"/></linearGradient><linearGradient id="paint13_linear" x1="59.88" x2="57.27" y1="36.96" y2="38.67" gradientUnits="userSpaceOnUse"><stop stop-color="#D27520"/><stop offset=".05" stop-color="#DA8D2F"/><stop offset=".12" stop-color="#E2A840"/><stop offset=".2" stop-color="#E9BE4E"/><stop offset=".29" stop-color="#EECF59"/><stop offset=".4" stop-color="#F2DA60"/><stop offset=".56" stop-color="#F4E165"/><stop offset="1" stop-color="#F5E366"/></linearGradient><linearGradient id="paint14_linear" x1="59.87" x2="60.76" y1="36.43" y2="39.43" gradientUnits="userSpaceOnUse"><stop stop-color="#D27520"/><stop offset=".07" stop-color="#D57E26"/><stop offset=".5" stop-color="#E6B448"/><stop offset=".82" stop-color="#F1D65E"/><stop offset="1" stop-color="#F5E366"/></linearGradient><linearGradient id="paint15_linear" x1="60.1" x2="60.99" y1="36.36" y2="39.36" gradientUnits="userSpaceOnUse"><stop stop-color="#D27520"/><stop offset=".05" stop-color="#DA8D2F"/><stop offset=".12" stop-color="#E2A840"/><stop offset=".2" stop-color="#E9BE4E"/><stop offset=".29" stop-color="#EECF59"/><stop offset=".4" stop-color="#F2DA60"/><stop offset=".56" stop-color="#F4E165"/><stop offset="1" stop-color="#F5E366"/></linearGradient><linearGradient id="paint16_linear" x1="12.39" x2="9.28" y1="36.2" y2="36.21" gradientUnits="userSpaceOnUse"><stop stop-color="#D27520"/><stop offset=".07" stop-color="#D57E26"/><stop offset=".5" stop-color="#E6B448"/><stop offset=".82" stop-color="#F1D65E"/><stop offset="1" stop-color="#F5E366"/></linearGradient><linearGradient id="paint17_linear" x1="12.39" x2="9.28" y1="35.97" y2="35.98" gradientUnits="userSpaceOnUse"><stop stop-color="#D27520"/><stop offset=".05" stop-color="#DA8D2F"/><stop offset=".12" stop-color="#E2A840"/><stop offset=".2" stop-color="#E9BE4E"/><stop offset=".29" stop-color="#EECF59"/><stop offset=".4" stop-color="#F2DA60"/><stop offset=".56" stop-color="#F4E165"/><stop offset="1" stop-color="#F5E366"/></linearGradient><linearGradient id="paint18_linear" x1="12.69" x2="11.67" y1="36.41" y2="33.45" gradientUnits="userSpaceOnUse"><stop stop-color="#D27520"/><stop offset=".07" stop-color="#D57E26"/><stop offset=".5" stop-color="#E6B448"/><stop offset=".82" stop-color="#F1D65E"/><stop offset="1" stop-color="#F5E366"/></linearGradient><linearGradient id="paint19_linear" x1="12.9" x2="11.88" y1="36.34" y2="33.38" gradientUnits="userSpaceOnUse"><stop stop-color="#D27520"/><stop offset=".05" stop-color="#DA8D2F"/><stop offset=".12" stop-color="#E2A840"/><stop offset=".2" stop-color="#E9BE4E"/><stop offset=".29" stop-color="#EECF59"/><stop offset=".4" stop-color="#F2DA60"/><stop offset=".56" stop-color="#F4E165"/><stop offset="1" stop-color="#F5E366"/></linearGradient><linearGradient id="paint20_linear" x1="12.58" x2="15.06" y1="36.76" y2="34.86" gradientUnits="userSpaceOnUse"><stop stop-color="#D27520"/><stop offset=".07" stop-color="#D57E26"/><stop offset=".5" stop-color="#E6B448"/><stop offset=".82" stop-color="#F1D65E"/><stop offset="1" stop-color="#F5E366"/></linearGradient><linearGradient id="paint21_linear" x1="12.72" x2="15.19" y1="36.93" y2="35.04" gradientUnits="userSpaceOnUse"><stop stop-color="#D27520"/><stop offset=".05" stop-color="#DA8D2F"/><stop offset=".12" stop-color="#E2A840"/><stop offset=".2" stop-color="#E9BE4E"/><stop offset=".29" stop-color="#EECF59"/><stop offset=".4" stop-color="#F2DA60"/><stop offset=".56" stop-color="#F4E165"/><stop offset="1" stop-color="#F5E366"/></linearGradient><linearGradient id="paint22_linear" x1="12.22" x2="14.83" y1="36.77" y2="38.48" gradientUnits="userSpaceOnUse"><stop stop-color="#D27520"/><stop offset=".07" stop-color="#D57E26"/><stop offset=".5" stop-color="#E6B448"/><stop offset=".82" stop-color="#F1D65E"/><stop offset="1" stop-color="#F5E366"/></linearGradient><linearGradient id="paint23_linear" x1="12.1" x2="14.7" y1="36.96" y2="38.67" gradientUnits="userSpaceOnUse"><stop stop-color="#D27520"/><stop offset=".05" stop-color="#DA8D2F"/><stop offset=".12" stop-color="#E2A840"/><stop offset=".2" stop-color="#E9BE4E"/><stop offset=".29" stop-color="#EECF59"/><stop offset=".4" stop-color="#F2DA60"/><stop offset=".56" stop-color="#F4E165"/><stop offset="1" stop-color="#F5E366"/></linearGradient><linearGradient id="paint24_linear" x1="12.11" x2="11.22" y1="36.43" y2="39.43" gradientUnits="userSpaceOnUse"><stop stop-color="#D27520"/><stop offset=".07" stop-color="#D57E26"/><stop offset=".5" stop-color="#E6B448"/><stop offset=".82" stop-color="#F1D65E"/><stop offset="1" stop-color="#F5E366"/></linearGradient><linearGradient id="paint25_linear" x1="11.88" x2="10.99" y1="36.36" y2="39.36" gradientUnits="userSpaceOnUse"><stop stop-color="#D27520"/><stop offset=".05" stop-color="#DA8D2F"/><stop offset=".12" stop-color="#E2A840"/><stop offset=".2" stop-color="#E9BE4E"/><stop offset=".29" stop-color="#EECF59"/><stop offset=".4" stop-color="#F2DA60"/><stop offset=".56" stop-color="#F4E165"/><stop offset="1" stop-color="#F5E366"/></linearGradient><linearGradient id="paint26_linear" x1="22.96" x2="51.34" y1="36.15" y2="36.15" gradientUnits="userSpaceOnUse"><stop offset="0" stop-color="#8F561E"/><stop offset=".04" stop-color="#FFE767"/><stop offset=".05" stop-color="#F5DA61"/><stop offset=".06" stop-color="#DBB850"/><stop offset=".08" stop-color="#B18234"/><stop offset=".09" stop-color="#8F561E"/><stop offset=".15" stop-color="#FFE767"/><stop offset=".21" stop-color="#FFE767"/><stop offset=".22" stop-color="#FDE465"/><stop offset=".24" stop-color="#F5DA60"/><stop offset=".25" stop-color="#E8CA58"/><stop offset=".26" stop-color="#D6B24C"/><stop offset=".27" stop-color="#BF943D"/><stop offset=".28" stop-color="#A36F2B"/><stop offset=".28" stop-color="#8F561E"/><stop offset=".32" stop-color="#FFE767"/><stop offset=".33" stop-color="#FDE465"/><stop offset=".34" stop-color="#F5DA60"/><stop offset=".35" stop-color="#E8CA58"/><stop offset=".35" stop-color="#D6B24C"/><stop offset=".36" stop-color="#BF943D"/><stop offset=".37" stop-color="#A36F2B"/><stop offset=".37" stop-color="#8F561E"/><stop offset=".4" stop-color="#FFE767"/><stop offset=".41" stop-color="#FDE465"/><stop offset=".42" stop-color="#F5DA60"/><stop offset=".43" stop-color="#E8CA58"/><stop offset=".44" stop-color="#D6B24C"/><stop offset=".45" stop-color="#BF943D"/><stop offset=".45" stop-color="#A36F2B"/><stop offset=".46" stop-color="#8F561E"/><stop offset=".55" stop-color="#FFE767"/><stop offset=".56" stop-color="#F5DA61"/><stop offset=".57" stop-color="#DBB850"/><stop offset=".58" stop-color="#B18234"/><stop offset=".59" stop-color="#8F561E"/><stop offset=".59" stop-color="#8F561E"/><stop offset=".61" stop-color="#8F561E"/><stop offset=".61" stop-color="#996324"/><stop offset=".61" stop-color="#B88B39"/><stop offset=".62" stop-color="#D2AC49"/><stop offset=".62" stop-color="#E6C656"/><stop offset=".63" stop-color="#F4D860"/><stop offset=".63" stop-color="#FCE365"/><stop offset=".64" stop-color="#FFE767"/><stop offset=".65" stop-color="#F5DA61"/><stop offset=".66" stop-color="#DBB850"/><stop offset=".68" stop-color="#B18234"/><stop offset=".69" stop-color="#8F561E"/><stop offset=".7" stop-color="#8F561E"/><stop offset=".78" stop-color="#8F561E"/><stop offset=".81" stop-color="#FFE767"/><stop offset=".84" stop-color="#FFE767"/><stop offset=".85" stop-color="#F5DA61"/><stop offset=".88" stop-color="#DBB850"/><stop offset=".91" stop-color="#B18234"/><stop offset=".93" stop-color="#8F561E"/><stop offset="1" stop-color="#FFE767"/></linearGradient></defs></svg>