<svg xmlns="http://www.w3.org/2000/svg" width="500" height="67" fill="none" viewBox="0 0 500 67"><path fill="#fff" fill-rule="evenodd" d="M426.9 1.8v.9h-1.7v1.7h-3V6h-1.6v3.3h-1.5V7.7h-1.6v1.6h-6L411 9a21.4 21.4 0 0 0-24.7 7.4 21.6 21.6 0 0 0-4.2 11v3.8a21.7 21.7 0 0 0 13 18 21.3 21.3 0 0 0 15.9.3l.5-.2h70.2A20 20 0 0 0 500 31a20 20 0 0 0-18-21.7h-56.5V7.7h-1.7V6h1.4V4.4h1.7V6H428.6V4.3h-1.7V2.7h1.7V1h-1.7v.8zm-3.1 6.7v.7h-1.6V7.7h1.6v.8zm69.5 1v.3h.8v2.5h.5V9.7h.8v-.5h-2v.3zm2.5 1.2v1.5h.5V10l.3 1 .2 1.1v.2h.3l.2-.1.3-1.1.3-1v2.2h.5v-3h-.8l-.2.9-.3 1-.4-1.5-.1-.4h-.8v1.5zm-79.4.7v.6a28.3 28.3 0 0 0-1.2-.8l-.5-.3h1.7v.5zm4.2.2v.8h-1.5v-1.6h1.5v.8zm60.8-.7a18.4 18.4 0 0 1-.2 36.8h-66.5l.5-.4a21.6 21.6 0 0 0 4.9-31.8h.7V14.2h1.4v-3.3h59.2zm-77 3.6c2.7.2 5.1 1 7.2 2.5l.2.2v.2h-1V19h-1.2l-.2.4a99.3 99.3 0 0 0-5.3 10l-.5-.7c-1-1.4-2-2.5-3-3.6A13 13 0 0 0 396 22a1.4 1.4 0 0 0-.7-.2l-.5.1c-.5.3-.8.8-.7 1.4.2.5.4.9 1 1.6a32.5 32.5 0 0 1 4.4 6 42.2 42.2 0 0 1 2.9 6.4 2.8 2.8 0 0 0 2.4 1.1h.7a2 2 0 0 0 1.1-.8l.4-.8a54.1 54.1 0 0 1 5-10l.5-.8v-1.7h1.2v-1.6h1.4v-1.8h.4l.2.3c2 3 2.8 6.7 2.3 10.3A14.7 14.7 0 0 1 404.8 44a14.6 14.6 0 0 1-12.5-5.2 14.6 14.6 0 0 1-3.4-11.6A14.8 14.8 0 0 1 399.7 15c1.5-.4 3.3-.6 4.8-.5zm24.6 7.1v7h2.8V19l2.5 4.9 2.5 4.8h3V14.6H437v8.7l-2.3-4.3-2.3-4.4H429v7zm31.5-6.2-.2 1.4-.3 1.5h-1.2l-1.5.1a3.7 3.7 0 0 0-2.1 1.8l-.2.2-.5-1-.3-1h-1.8v10.3h3V23c.4-1.3 1.1-2.2 2.2-2.6l1.6-.1h.8v3c0 3.1 0 3 .2 3.7.4 1 1.1 1.6 2.3 1.7h1.5c.6 0 1.5-.2 1.5-.3l-.3-2.1h-.3l-.8.2-.6-.1a.7.7 0 0 1-.4-.5v-5.6h2.1v-2H463v-3h-2.5zM445.7 18a5.4 5.4 0 0 0 .3 10.8 5.4 5.4 0 1 0-.3-10.8zm24.7 0a5.3 5.3 0 0 0-3.3 1.6 5.3 5.3 0 0 0-1.5 5 5.4 5.4 0 0 0 6.2 4.1 5.3 5.3 0 0 0 3-1.5 5.3 5.3 0 0 0 1.2-5.6 5.4 5.4 0 0 0-5.6-3.6zm12.2 0c-1 0-2 .6-2.8 1.4l-.4.4-.1-.4-.3-.8-.2-.4H477v10.4h3v-7.1l.3-.3.6-.5c.4-.2.6-.2 1-.2.6 0 1 .2 1.2.6.3.3.3 0 .3 4v3.5h3V25c0-4 0-4-.2-4.6a3.2 3.2 0 0 0-2.5-2.2l-1.2-.1zm-35.7 2.7a2.8 2.8 0 0 1 0 5.3h-1.4a2.8 2.8 0 0 1-2-2 2.8 2.8 0 0 1 3.4-3.3zm24.7 0c.3 0 .8.3 1 .5.5.4.8 1 1 1.4V24a2.8 2.8 0 0 1-1.5 2c-.5.2-.7.2-1.2.2l-.8-.1a2.8 2.8 0 0 1 .4-5.4l1.1.1zM431 33a2.9 2.9 0 0 0-1.9.8 2.5 2.5 0 0 0-.4 2.5l.5.8c.4.4.9.6 1.8 1 1.3.4 1.7.6 1.9 1v1c-.2.5-.7.8-1.6.8-.8 0-1.6-.3-2.2-.7l-.2-.1-.2.2-.3.5-.2.4.7.5c.8.4 2 .6 2.9.5 1.2-.1 2-.6 2.4-1.4.2-.4.3-.7.3-1.2 0-.6-.2-1-.4-1.4a3 3 0 0 0-.7-.7 7.9 7.9 0 0 0-1.6-.7c-1.2-.4-1.4-.6-1.6-1a.9.9 0 0 1-.1-.4v-.5a.7.7 0 0 1 .3-.4c.3-.2.6-.2 1.1-.2a4 4 0 0 1 2 .4l.5-1.1a3.4 3.4 0 0 0-.8-.4 6.4 6.4 0 0 0-2.2-.2zm17.1 0c-.8 0-1.7.5-2.2 1a4.6 4.6 0 0 0-1 2.2 9.2 9.2 0 0 0 0 2.4c.3 2.2 1.4 3.4 3.3 3.6 1.2 0 2.2-.3 3-1l.2-.3-.5-.5-.4-.5-.3.3a3 3 0 0 1-1 .6 3 3 0 0 1-1.2 0c-1-.3-1.6-1.4-1.5-3.4 0-2 .7-3 2.1-3 .6 0 1.1.1 1.6.6h.1l.5-.4.4-.5-.2-.2a3.1 3.1 0 0 0-2-1 3.3 3.3 0 0 0-.9 0zm-11 4.6V42h5.6v-1.3h-4V38h3v-1.2h-3.1v-2.5h3.8v-1.2h-5.3v4.5zm16.7-4.5v3.2c0 3.4 0 3.3.2 4 .3.8.8 1.4 1.4 1.6 1 .4 2.4.4 3.2 0l.6-.5c.3-.2.3-.3.5-.6l.4-1.5V33.1h-1.6v6.4c-.1 1-.5 1.4-1.4 1.4-.7 0-1.2-.2-1.5-.6-.2-.5-.2-.3-.2-4v-3.2h-1.6zm9.3 0v9h1.5v-3.8h1.4l.9 1.9.8 1.9H469.4l-1-2-.8-2 .2-.1c.5-.2 1-.7 1.2-1.1.2-.4.2-.7.2-1.2V35c-.3-1-1-1.6-2.3-1.8l-2-.1h-1.8zm8.9 4.5V42h5.5v-1.3h-4V38h3v-1.2h-3v-2.5h3.8v-1.2H472v4.5zm8.1-4.5v9H483.2c1.9-.3 3-1.4 3.3-3.3l.1-1.2v-1.3c-.4-2-1.7-3-3.8-3.2h-2.7zm-13.3 1.3c.4.2.7.4.8.8v1.1c-.2.4-.4.6-.8.7h-1.2l-1 .1v-2.8h1l1.2.1zm16.4 0c1.3.3 1.8 1.2 1.8 3.2 0 1.3-.2 2-.7 2.6-.5.4-1.1.6-2.1.6h-.6v-6.5h.7l1 .1zm-55.8 23.2V59l-.2-.2a2.3 2.3 0 0 0-.9-.6H425c-.9.3-1.4 1-1.7 1.8v1.6c.3 1.1 1.1 1.9 2.2 1.9.7 0 1.1-.1 1.6-.6l.3-.3v.8h1.2v-7.1h-1.2v1.3zm5.5 2.2v3.6h1.2v-.8l.2.3a2.3 2.3 0 0 0 3.7-.8c.3-.7.3-1.7 0-2.4a2.6 2.6 0 0 0-1-1.3 2.3 2.3 0 0 0-2 0c-.3 0-.6.3-.7.5l-.2.2v-2.8H433v3.5zm16.9-3.3a3 3 0 0 0-1 .3l-.6.6a2 2 0 0 0-.3 1.4c.2 1 .7 1.3 2.2 1.7l1.2.4c.3.2.4.4.4.7 0 .4-.4.7-.9.8a3.1 3.1 0 0 1-1.1 0 3.6 3.6 0 0 1-1.4-.9l-.7.9.5.4c.5.3 1.1.6 1.7.7.7 0 1.2 0 1.7-.2a2 2 0 0 0 1.3-1.2v-.6c0-.6 0-1-.5-1.4-.3-.3-.8-.5-1.9-.8-1-.2-1.2-.4-1.3-.8 0-.5.2-.8.8-1 .5 0 1.2.1 1.9.6l.2.1.3-.4.3-.4c0-.1-.6-.6-1.1-.7a4.2 4.2 0 0 0-1.7-.2zm31.1 1v.7h-.6v1h.6v1.4c0 1.5 0 1.8.2 2.1 0 .3.3.5.6.6.4.2 1 .2 1.5 0h.3v-1.1l-.2.1-.4.1c-.4 0-.6 0-.7-.2V59.3h1.3v-1h-1.4v-1.5H481v.7zm-91.7.7a2 2 0 0 0-1 .7l-.2.2v-.9h-1.2V65h1.2v-2.3l.2.2.8.5h1.4c1-.4 1.6-1.2 1.7-2.4 0-.5 0-.9-.2-1.3a2.4 2.4 0 0 0-1.7-1.5 3 3 0 0 0-1 0zm5.9 0c-.8.2-1.6.8-1.9 1.6-.3.8-.2 1.7.2 2.3a2.6 2.6 0 0 0 2.3 1.4 2.7 2.7 0 0 0 2.7-2l.1-.7-.1-.8a2.7 2.7 0 0 0-2-1.8 3.8 3.8 0 0 0-1.3 0zm14.2 0a2.5 2.5 0 0 0-1.5 1.3c-.3.5-.3.7-.3 1.4v.8l.3.5a2.5 2.5 0 0 0 2.4 1.3c.5 0 .8 0 1.2-.3l.8-.6-.7-.7-.1.1-.3.2c-.6.5-1.5.4-2 0a1.9 1.9 0 0 1-.4-.8v-.1h3.8l-.1-.5c0-1.3-.7-2.3-1.8-2.6a3.1 3.1 0 0 0-1.3 0zm6.8 0c-.5.1-.9.5-1.2 1v.1-1h-1.3v5.1h1.2v-1.2l.1-1.6c.2-.6.6-1 1.2-1.2h.5v-1.3h-.2l-.3.1zm3 0c-.8.2-1.4 1-1.7 1.8v1.3a2.5 2.5 0 0 0 2.7 2.2c.5 0 .8 0 1.2-.3l.8-.6-.7-.7-.2.1-.2.2c-.7.5-1.6.4-2 0a1.6 1.6 0 0 1-.5-.9h3.8v-.5l-.1-.8c-.3-1-.9-1.6-1.7-1.8a3.1 3.1 0 0 0-1.3 0zm42.7 0a2 2 0 0 0-.8.6l-.2.2v-.8h-1.2v5.2h1.2v-3.3l.1-.2c.1-.3.4-.5.6-.6h1l.4.6v3.5h1.3v-1.6l.1-2c0-.2.3-.4.4-.5h1c.1 0 .4.3.4.5.2.3.2.5.2 2v1.6h1.2v-1.9a11.6 11.6 0 0 0-.1-2l-.5-1c-.3-.2-.7-.4-1.2-.4-.7 0-1 .2-1.5.6l-.3.3v-.2a1.6 1.6 0 0 0-1-.6h-1zm8.7 0a4.5 4.5 0 0 0-1.3.3l-.2.1.2.4.2.5h.3c.6-.3 1.4-.3 1.8-.2l.5.5v.6a4.5 4.5 0 0 0-2-.1c-.8.2-1.2.6-1.4 1.2-.2 1.1.6 2 1.8 2 .6 0 1-.2 1.5-.5l.2-.2v.6h1.2v-1.8a9 9 0 0 0-.1-2c-.3-1-1-1.4-2-1.4h-.7zm6.5 0c-.3 0-.5.2-.8.5l-.3.3v-.8h-1.2v5.2h1.2V60l.6-.6h1.1l.4.5.1 2.2v1.4h1.2v-3.7c-.1-.8-.6-1.3-1.3-1.5a2.9 2.9 0 0 0-1 0zm9.2 0c-.9.2-1.6 1-1.8 1.9v1.4a2.5 2.5 0 0 0 1.9 2h1.5l1.1-.8.1-.2-.3-.3-.4-.3-.2.2c-.4.3-.9.5-1.4.4a1.5 1.5 0 0 1-.8-.4l-.4-.7v-.1h3.7V60a2.4 2.4 0 0 0-1.7-1.9 3.1 3.1 0 0 0-1.3 0zm6 0a2.7 2.7 0 0 0-.4 5.1c.4.2.7.2 1.2.2a2.3 2.3 0 0 0 1.7-.7l.2-.2-.3-.4-.4-.4-.2.2c-.6.5-1.2.6-1.8.3-.8-.4-1-1.4-.6-2.3 0-.3.4-.6.6-.7H493.5l.5.3.2.2.2-.2.4-.4.1-.2-.1-.1a2.5 2.5 0 0 0-1.2-.7 3.5 3.5 0 0 0-1.4 0zM402 60l-.6 1.7-.5-1.7-.5-1.8h-1.2l.8 2.7.8 2.5h1.1l.6-1.7.6-1.8v.2l.6 1.8.5 1.5h1l.9-2.5.8-2.6h-1.2v.2a1238.9 1238.9 0 0 0-1 3.2L404 60l-.5-1.8h-1l-.6 1.8zm36.8-1.7 1.1 2.6 1 2.5v.1c-.2.5-.6.6-1 .4-.4-.1-.4-.1-.6.3l-.1.5s.6.3 1 .3c.8 0 1.3-.3 1.6-1l1.2-3 1-2.7h-1.1L442 60a41.3 41.3 0 0 1-.7 1.9l-.7-1.9-.7-1.9H438.7zm14.7 0 1 2.6 1.1 2.5v.1c-.3.5-.6.6-1.1.4h-.3l-.2.4-.2.4h.1c.2.2.7.3 1 .3.8 0 1.3-.2 1.6-1l2.3-5.7h-1.3l-.6 1.8a12.8 12.8 0 0 1-.7 1.9l-.7-2-.7-1.7H453.4zm-43 1c.4.1.7.4.8.8 0 .4.2.3-1.3.3s-1.3 0-1.2-.3c.1-.5.5-.8.9-1h.4l.5.1zm10 0c.3.1.5.4.7.9 0 .3.2.3-1.3.3s-1.4 0-1.2-.4c0-.3.2-.5.4-.6.3-.3.4-.4.9-.4l.5.1zm66.8-.1c.5.1.7.5.9 1.2h-2.6c.1-.6.4-1 .8-1.2h1zm-97.5 0c.4.1.8.4 1 .8a2 2 0 0 1 0 1.7c-.6 1.2-2.4 1-2.7-.5a2.4 2.4 0 0 1 0-.9c.2-.8 1-1.3 1.7-1.1zm36.5 0c.8.2 1.3 1 1.2 2-.1.3-.2.6-.5.8a1.4 1.4 0 0 1-1.6.3 1.6 1.6 0 0 1-.8-1 2.9 2.9 0 0 1 0-1c.2-.8 1-1.3 1.7-1.1zm10 .1c.5.3.8.8.8 1.5l-.1.9c-.4.7-1.2 1-2 .6s-1-1.6-.5-2.5c.2-.3.5-.5.9-.6l.9.1zm-39.8 0c.6.3 1 .9 1 1.5 0 .7-.4 1.3-1 1.5-1.2.6-2.4-.5-2.1-1.9 0-.5.4-1 1-1.1h1.1zm75.2 1.8h.3l.2.1v.3c0 .4-.1.5-.3.8-.5.4-1.4.4-1.8 0a.8.8 0 0 1-.2-.5c0-.6.7-.9 1.8-.7zM201 6.1c-8.6.8-14.8 1.8-21 3.4l-1.7.5-.2 1c-.3 1.8 0 13.3.3 15.8 1.8 12.3 6.2 22 13.6 29.9 3.5 3.7 8.1 7.2 12.3 9.3 2.6 1.3 3.4 1.3 5.7.2a49 49 0 0 0 25.5-34.9c1-4.9 1.2-7.2 1.2-14.4 0-4.3 0-6.7-.2-6.8a100.7 100.7 0 0 0-28.1-4H201zm14.3 3.4a121 121 0 0 1 17.8 3.3c.7.5.6 10.4-.1 15.4a45 45 0 0 1-23.4 35l-2.3 1-2.2-1a41.7 41.7 0 0 1-16.6-15.3 53.2 53.2 0 0 1-6.9-34.8 112.2 112.2 0 0 1 22.2-3.9c1.6-.1 9.4 0 11.5.3zm87.5 1.2a3.6 3.6 0 0 0-2.2 1.9c-.5.8-.6 1.1-.6 3l-.1 2.2H297v3.5h2.8V32h4.7V21.3h3.3v-3.5h-3.3V17c0-1.2.3-2.3.8-2.7.3-.2.6-.3 1.4-.2l1-.1v-1.8l.2-1.5-.6-.1c-1-.2-3.7-.1-4.5.1zm-57.3.8a705.4 705.4 0 0 0-3.1 20.2l-.1.5h2.6l2.6-.1.8-5.5.8-5.4 2.1 5.5 2.1 5.5h2.5c1.8 0 2.4 0 2.3-.3L251 11.6l-.2-.5h-2.5c-2.5 0-2.6 0-2.7.4zm11 4.7-1.8 5.1 1.2 3.2c.6 1.8 1.2 3.1 1.3 3l1.4-3a24 24 0 0 1 1.3-3c.1 0 .4 1.7.6 3.7l.7 5.4.2 1.6h2.6c2.6 0 2.6 0 2.5-.5l-2.8-20.5-2.6-.1h-2.6l-2 5.1zm29.3-4.6L279 32.1l2.6.1h2.6l.6-1.9.7-1.9h3.1l3.2.1.6 1.9.6 1.8h2.6c1.4 0 2.6 0 2.6-.2l-3.4-10.5-3.4-10.4H286l-.2.5zm55.7.3a3.7 3.7 0 0 0-.2 6.1c1.2.9 3.1.8 4.4 0 2-1.5 1.7-5-.5-6.2-1-.5-2.8-.5-3.7.1zm3.4.8c.9.4 1.3 1.3 1.3 2.3 0 1.1-.6 2-1.6 2.6-1.1.5-2 .4-3-.5-1.7-1.5-1.2-4 1-4.8.9-.3 1.5-.2 2.3.3zm-3 2.4c0 2 .2 2 .4 2s.4 0 .4-1c0-.7 0-.9.3-.9s.5.5.8 1c.3.7.6 1 .9 1s.4-.3 0-1.2c-.4-.5-.6-1-.4-1 .4-.1.5-.4.5-1 0-.3 0-1-1.5-1h-1.4v2.1zm1.9-1.3v.6l-.6.2c-.4 0-.5 0-.5-.5 0-.4 0-.5.6-.5.2 0 .3 0 .5.2zm-158.6 7c0 6.4.3 8.6 1.3 12.8 2.8 11 9.8 20.2 19 24.8l1.7.9.9-.3 2.9-1.6c8.8-5.3 15-14 17.5-24.8.9-3.9 1-5.9 1-12V15l-1 .1a257.5 257.5 0 0 1-42.1 0l-1.2-.1v5.9zm129.3-3.4c-3.6.7-5.5 3.4-5.6 7.6 0 4.7 2.9 7.6 7.6 7.6 3 0 5.5-1.6 6.4-3.9l.4-1.2h-2.4c-2.1 0-2.3 0-2.5.3-.1.3-.5.6-.8.7a2.6 2.6 0 0 1-3.6-1.1c-.7-1.6-1-1.5 4.6-1.5h4.9v-.5c0-1.2-.5-3.3-1-4.3a6.9 6.9 0 0 0-3.5-3.4 10.4 10.4 0 0 0-4.5-.3zm15.9 0a6.9 6.9 0 0 0-5 4c-.4 1-.4 1.6-.5 3.6 0 2.3 0 2.4.7 3.7A6.6 6.6 0 0 0 329 32c1 .4 1.5.5 3.3.5 2.4 0 3.3-.3 4.8-1.5.7-.6 2-2.7 2-3.3 0-.2-.5-.2-2.3-.2h-2.3l-.5.6c-.4.5-.7.6-1.5.7-1.5.1-2.6-.7-3-2.3V26h9.8V25c0-1.2-.5-3.3-1-4.3a6.7 6.7 0 0 0-3.3-3 10.5 10.5 0 0 0-4.7-.3zm-58 .6a7.2 7.2 0 0 0-5 4.3 7.3 7.3 0 0 0-.5 3c0 1.8 0 2.2.6 3.3a7.7 7.7 0 0 0 3 3.3 11 11 0 0 0 6.8.6l1-.2v-2a6 6 0 0 0 0-1.8c-.1 0-.6 0-1.2.3-1.3.3-2.2.3-3.2-.1-2-1-2.7-3.2-1.6-5.4.9-1.7 2.8-2.1 5.3-1 .4 0 .4-.1.7-2.6l.1-1-.8-.4c-1.1-.5-3.7-.6-5.1-.3zm18 6-1.8.1c-1.5 0-1.8 0-1.7-.3l.8-2.7.8-2.8a82.3 82.3 0 0 1 1.8 5.7zm27.2-2.9.9.7c.6.8.4 1-2.2 1a14 14 0 0 1-2.4-.2l.3-.7c.5-1 2.4-1.5 3.5-.8zm16 0c.4.2.8.7 1 1l.3.6h-2.6c-1.4 0-2.5 0-2.5-.2 0-.3 1-1.4 1.4-1.6a3 3 0 0 1 2.4.2zm-128.1 6.6c1.2 3.7 2.1 7.3 2.1 7.3l.3.6.5 1.8.1.5.8 2.4.3 1 .5 1.3.4 1.4h-6l-1.4-6-1.7-6a189.3 189.3 0 0 1-2 12H194.2l1.5-9.3 1.7-11.5.3-2.3h5.8l2.1 6.8zm11.9-6.7 1.7 11.3 1.6 11.5c0 .2-.5.3-2.6.3-2.3 0-2.7 0-2.7-.4-.1-.2-.6-2.9-1-6a71.2 71.2 0 0 0-1.1-5.7l-1 4.1-1 4.5c0 .2-.6-1.3-1.5-4.1l-1.5-4.5 1-3 1.7-5.5.7-2.6h2.9l2.8.1zm29 18c-1.8.6-3 1.6-3.6 3a7 7 0 0 0 0 4.4c.7 1.2 1.5 1.9 4.4 3.3 1.3.7 2.7 1.5 3 1.8 1.4 1.5 1 3.5-1 4.5-1 .5-3.1.5-5 0a7.4 7.4 0 0 0-1.2-.4l-.2 1.4-.2 1.4 1.5.4c2 .5 5 .3 6.7-.3 2.4-1 3.6-2.9 3.4-5.6-.1-2.7-1.1-3.9-4.8-5.8-3-1.5-3.7-2.1-3.7-3.3 0-2.1 2.5-3 5.7-2.1.8.2 1.4.3 1.5.2l.3-1.3.1-1.2-.7-.3c-.9-.4-5.3-.4-6.3-.1zm33 0a9.7 9.7 0 0 0-7.2 7.3c-.4 1.6-.3 4.7.3 6.3a9.4 9.4 0 0 0 6.8 6.2c1.4.3 5.3.4 6.8 0l1-.2V57c.1-1.4 0-1.5-.2-1.4a9.4 9.4 0 0 1-7.6.1c-4.4-2-5.5-8.3-2.2-12 2-2.3 5.6-3 8.7-1.8l1.2.5.1-1.2a5.9 5.9 0 0 0 0-1.6c-.2-.5-1.5-.7-4.1-.8-1.9 0-2.9 0-3.6.2zM258.2 49v10h11.4V56h-8.3v-6.3h7.7v-2.6h-7.7v-5.5h8.2v-2.8h-11.3v10zm31.2-3.8c0 3.4 0 6.7.2 7.4.4 3 1.7 4.9 4 5.9 1 .5 1.4.6 3.3.6 1.7 0 2.4 0 3.4-.3a6.8 6.8 0 0 0 4.5-4.5c.3-.8.3-1.7.4-8.1v-7.2h-3.1v6.4c0 7-.1 7.9-1 9.3-.8 1.3-1.8 1.8-3.8 1.8-1.7 0-2.4-.2-3.4-1.3-1.2-1.3-1.3-1.7-1.4-9.3v-6.9h-3.1v6.2zm20.2 3.8v10h3v-8.7h1.7c1.7 0 2.4.3 3 1 0 .3.9 2 1.8 4l1.6 3.6h3.6c0-.4-4.5-9-5-9.4l-.5-.5.7-.3a5 5 0 0 0 2.6-2.2c.3-.5.4-1.1.4-2.2 0-1.8-.4-2.8-1.6-3.7-1.3-1.2-2.4-1.4-7.2-1.5l-4.2-.1v10zm17.6 0v10h11.6V56h-8.5v-6.3h7.7v-2.6h-7.7v-5.5h8.5v-2.8h-11.6v10zm-9.2-6.7c.9.6 1.4 1.7 1.3 2.6-.3 1.7-1.6 2.5-4.6 2.6h-2v-5.8l2.3.1c2 0 2.4.1 3 .5z" clip-rule="evenodd"/><path fill="#fff" d="M8 5.6a5.7 5.7 0 0 1-2.3-1.1C5.3 4 5 3.5 5 2.9c0-.7.3-1.3.9-1.8A3.4 3.4 0 0 1 8 .4c.7 0 1.2.1 1.7.3.5.3.9.6 1.1 1 .3.5.5 1 .5 1.5h-1.2c0-.6-.2-1-.6-1.3a2.1 2.1 0 0 0-1.5-.5c-.6 0-1 .1-1.4.4-.3.2-.5.6-.5 1s.2.8.5 1c.3.3.9.5 1.6.7.8.2 1.4.5 1.8.7a2.3 2.3 0 0 1 1.3 2.2c0 .7-.3 1.3-.9 1.7-.6.5-1.3.7-2.3.7-.6 0-1.2-.1-1.8-.4a3 3 0 0 1-1.2-1c-.3-.4-.5-.9-.5-1.4H6c0 .6.2 1 .6 1.3.5.4 1 .5 1.7.5.6 0 1.1-.1 1.5-.4.3-.2.5-.6.5-1 0-.5-.2-.8-.5-1-.3-.3-.9-.6-1.7-.8zm7.9 3.3c.4 0 .7-.2 1-.4.4-.3.5-.6.6-1h1c0 .4 0 .8-.3 1.1a2.8 2.8 0 0 1-2.3 1.2c-1 0-1.7-.3-2.2-1a3.7 3.7 0 0 1-.9-2.5v-.2c0-.6.2-1.2.4-1.7a2.8 2.8 0 0 1 2.7-1.7c.7 0 1.4.3 1.9.7.5.5.7 1 .8 1.8h-1.1a1.6 1.6 0 0 0-1.6-1.5c-.6 0-1 .2-1.4.6a3 3 0 0 0-.5 1.9v.2c0 .8.2 1.4.5 1.8.3.4.8.6 1.4.6zm8.6.8a2.5 2.5 0 0 1-.2-.7 2.6 2.6 0 0 1-2 .8c-.6 0-1.2-.2-1.6-.6a1.9 1.9 0 0 1-.6-1.4c0-.7.2-1.3.8-1.7.5-.4 1.3-.6 2.3-.6h1V5c0-.4 0-.7-.3-1-.2-.2-.6-.3-1-.3-.5 0-.8 0-1.1.3a1 1 0 0 0-.4.7h-1.2c0-.3.1-.6.4-1 .2-.3.5-.5 1-.7.4-.2.8-.3 1.3-.3.8 0 1.4.2 1.9.6.4.4.6 1 .7 1.6v3.2c0 .6 0 1.1.2 1.5h-1.2zm-2-1c.4 0 .7 0 1-.2.4-.2.6-.4.8-.7V6.4h-1c-1.4 0-2 .4-2 1.2 0 .4 0 .7.3.9.2.2.6.3 1 .3zM28.8 3v.8c.5-.6 1.2-1 2-1 1.5 0 2.2.8 2.2 2.5v4.5H32V5.2c0-.5-.2-.9-.4-1.1-.2-.3-.5-.4-1-.4-.4 0-.7.1-1 .3a2 2 0 0 0-.7.8v4.9h-1.1V2.9h1zm11.5 4.9H37l-.7 1.9h-2L37.7.5h1.8l3.4 9.2h-2l-.6-2zm-2.8-1.5h2.3l-1.2-3.5-1.1 3.5zM46 9.7H44V0H46v9.7zm5 .1c-1 0-1.8-.3-2.5-1a3.3 3.3 0 0 1-.9-2.4v-.1c0-.7.1-1.3.4-1.9a2.9 2.9 0 0 1 1.1-1.2 3 3 0 0 1 1.7-.5c1 0 1.6.3 2.2 1 .5.5.8 1.3.8 2.4V7h-4.4c.1.4.3.8.6 1 .3.3.6.4 1.1.4a2 2 0 0 0 1.6-.7l1 1c-.3.4-.7.7-1.2.9-.4.2-1 .3-1.5.3zm-.2-5.6c-.4 0-.7.1-1 .4a2 2 0 0 0-.3 1H52v-.1c0-.4-.1-.7-.3-1-.2-.2-.5-.3-1-.3zm8.2.4a5 5 0 0 0-.6 0c-.7 0-1.2.2-1.4.6v4.5h-1.8V2.9h1.7v.8c.4-.7 1-1 1.6-1l.6.1v1.8zm3.8-3.4v1.7H64v1.3h-1.2v3.4l.1.5.6.2h.5v1.3l-1 .2c-1.4 0-2-.7-2-2V4.3h-1V2.9h1V1.2h1.8zm4-.3h-1v2.7h-.3V.9h-1V.6H67v.3zm1-.3 1 2.4 1-2.4h.5v3h-.4V1l-1 2.5h-.3l-1-2.5v2.5h-.3v-3h.5zM0 15.8C0 13.2 2.1 11 4.7 11h128.6c2.6 0 4.7 2 4.7 4.7v44.5c0 2.6-2.1 4.7-4.7 4.7H4.7A4.7 4.7 0 0 1 0 60.3V15.8z"/><path fill="#4C4C4C" d="M59.2 31.5h-3.8v-6.6h-5.6v6.6H46V15.6h3.8V22h5.6v-6.3h3.8v15.9zm12.3-3h-5.3l-.9 3h-4L67 15.6h3.6l5.9 15.9h-4.1l-1-3zm-4.4-3h3.4l-1.7-5.4-1.7 5.5zm23.8.6a5.4 5.4 0 0 1-3.2 4.9c-1 .5-2.1.7-3.4.7a6.2 6.2 0 0 1-4.9-2 8.4 8.4 0 0 1-1.8-5.8v-.8c0-1.5.3-2.9.8-4a6.1 6.1 0 0 1 5.9-3.7c1.9 0 3.4.5 4.6 1.5a6 6 0 0 1 2 4.2h-3.8c0-1-.3-1.6-.7-2-.5-.5-1.2-.7-2.1-.7-1 0-1.7.4-2.1 1a7 7 0 0 0-.7 3.5V24c0 1.7.2 2.9.6 3.6.5.7 1.2 1.1 2.2 1.1a3 3 0 0 0 2-.6c.5-.4.7-1 .8-2h3.8zm7.8-.5-1.6 1.7v4.2h-3.8V15.6h3.9v7l1.3-2 3.4-5h4.7l-5.3 7 5.3 8.9h-4.5l-3.4-6zm19.3-.8h-6v3.7h7.1v3h-10.9V15.6h11v3H112v3.3h6v2.9zm9.2 1h-2v5.7h-3.8V15.6h6.2A7 7 0 0 1 132 17a4.2 4.2 0 0 1 1.6 3.5c0 1.1-.2 2-.7 2.8a4.7 4.7 0 0 1-2 1.7l3.2 6.4v.2h-4l-2.9-5.6zm-2-2.9h2.4c.7 0 1.3-.2 1.6-.5.4-.4.6-1 .6-1.6s-.2-1.2-.6-1.6c-.3-.4-.9-.6-1.6-.6h-2.4v4.3zM60 54.6a2.4 2.4 0 0 0-1-2c-.6-.5-1.7-1-3.4-1.5a33.2 33.2 0 0 1-4-1.5c-3.2-1.6-5-3.8-5-6.5 0-1.4.5-2.6 1.3-3.6a8 8 0 0 1 3.6-2.5 14.1 14.1 0 0 1 5-.8c2 0 3.6.3 5 1a7.8 7.8 0 0 1 3.5 2.6 6.8 6.8 0 0 1 1.2 4H60c0-1-.3-1.8-1-2.3a3.8 3.8 0 0 0-2.6-.8c-1 0-2 .2-2.6.7a2.1 2.1 0 0 0-1 1.7c0 .7.4 1.2 1.1 1.8.7.5 2 1 3.7 1.6a23 23 0 0 1 4.4 1.7c2.8 1.5 4.2 3.6 4.2 6.3a6 6 0 0 1-2.6 5.1c-1.7 1.3-4 1.9-7 1.9a14.5 14.5 0 0 1-5.6-1 8.6 8.6 0 0 1-3.8-3 7.5 7.5 0 0 1-1.3-4.3h6.2c0 1.3.4 2.3 1 2.9.8.6 2 1 3.6 1a4 4 0 0 0 2.4-.7c.6-.4.9-1 .9-1.8zm25 2h-8.5L75.1 61h-6.7L78 36.5h5.8l9.5 24.6h-6.7L85 56.5zm-7-4.7h5.5l-2.7-8.5L78 52zm34.3-.6h-10v9.8h-6.2V36.5h17.2v4.6h-11v5.7h10v4.5zm20.6-.6h-9.7v5.9h11.5V61H117V36.5h17.7v4.6h-11.5v5.2h9.7v4.4z"/><path fill="url(#a)" d="M24.8 15.2a44.1 44.1 0 0 0-19.4 3.7c-.2 1.1 0 5.3 0 15.8s13 22 19.4 26.4c14-9.9 17.8-21.7 18-26.4V19c-1.3-1-7.3-3.7-18-3.7z"/><defs><linearGradient id="a" x1="5.2" x2="42.9" y1="44.1" y2="44.1" gradientUnits="userSpaceOnUse"><stop offset=".5" stop-color="#4C4C4C"/><stop offset=".5" stop-color="#CCC9C9"/></linearGradient></defs></svg>